<?xml version="1.0" encoding="UTF-8" standalone="no"?>
<!-- Created with Inkscape (http://www.inkscape.org/) -->

<svg
   xmlns:dc="http://purl.org/dc/elements/1.1/"
   xmlns:cc="http://creativecommons.org/ns#"
   xmlns:rdf="http://www.w3.org/1999/02/22-rdf-syntax-ns#"
   xmlns:svg="http://www.w3.org/2000/svg"
   xmlns="http://www.w3.org/2000/svg"
   xmlns:sodipodi="http://sodipodi.sourceforge.net/DTD/sodipodi-0.dtd"
   xmlns:inkscape="http://www.inkscape.org/namespaces/inkscape"
   width="210mm"
   height="297mm"
   viewBox="0 0 210 297"
   version="1.1"
   id="svg8"
   inkscape:version="0.92.4 (5da689c313, 2019-01-14)"
   sodipodi:docname="cad war.svg">
  <defs
     id="defs2">
    <pattern
       y="0"
       x="0"
       height="6"
       width="6"
       patternUnits="userSpaceOnUse"
       id="EMFhbasepattern" />
  </defs>
  <sodipodi:namedview
     id="base"
     pagecolor="#ffffff"
     bordercolor="#666666"
     borderopacity="1.0"
     inkscape:pageopacity="0.0"
     inkscape:pageshadow="2"
     inkscape:zoom="0.24748737"
     inkscape:cx="-280.16402"
     inkscape:cy="674.32667"
     inkscape:document-units="mm"
     inkscape:current-layer="layer1"
     showgrid="false"
     inkscape:window-width="1366"
     inkscape:window-height="706"
     inkscape:window-x="-8"
     inkscape:window-y="-8"
     inkscape:window-maximized="1" />
  <metadata
     id="metadata5">
    <rdf:RDF>
      <cc:Work
         rdf:about="">
        <dc:format>image/svg+xml</dc:format>
        <dc:type
           rdf:resource="http://purl.org/dc/dcmitype/StillImage" />
        <dc:title></dc:title>
      </cc:Work>
    </rdf:RDF>
  </metadata>
  <g
     inkscape:label="Layer 1"
     inkscape:groupmode="layer"
     id="layer1">
    <path
       style="fill:#020030;fill-opacity:1;stroke-width:0.21581371"
       d="m 17.907341,207.20437 v -2.26603 h 20.070675 20.070669 v -4.85581 -4.85582 H 37.978016 17.907341 v -3.12928 -3.1293 h 20.070675 20.070669 v -4.85582 -4.8558 H 37.948878 17.849068 l 0.121973,-2.64372 c 0.137226,-2.97433 0.504379,-4.54415 1.578223,-6.74796 2.164404,-4.44192 5.863837,-7.56624 10.775401,-9.10026 l 1.934288,-0.60415 16.833469,-10e-4 c 16.780358,-0.001 16.838262,-2.1e-4 18.353119,0.47641 1.97221,0.62051 3.747492,1.79541 5.50753,3.64498 2.461082,2.58626 3.785586,4.92229 4.688606,8.26935 0.554684,2.05598 0.55813,2.12056 0.642506,12.04843 l 0.08481,9.9814 h 14.010982 14.010985 v 6.69485 6.69484 l -18.721852,-0.0586 -18.721842,-0.0586 -1.355744,-0.62606 c -1.72277,-0.79556 -3.477417,-2.63483 -4.182378,-4.38414 -0.500227,-1.24131 -0.503456,-1.30996 -0.568874,-12.09304 l -0.06586,-10.84463 h -0.7443 -0.744288 l 0.0013,10.08928 c 6.49e-4,5.54913 0.09485,10.66103 0.209312,11.35981 0.433168,2.6451 2.092581,5.17639 4.338045,6.6173 0.659417,0.42313 1.06254,0.83705 1.06254,1.09096 -3.8e-5,0.39924 -0.592905,0.40913 -24.494889,0.40913 H 17.907341 Z m 89.994319,-3.88463 v -4.64 h 1.60798 c 3.22163,0 5.24517,0.79685 7.73889,3.04753 1.87145,1.68905 2.80346,3.28035 3.23947,5.53107 l 0.13589,0.70138 h -6.36112 -6.36111 z m 15.97022,-0.32373 v -1.7265 h 17.58882 17.58881 v 1.7265 1.72651 H 141.4607 123.87188 Z M 17.907341,200.08253 v -3.34512 h 19.315326 19.315318 v 3.34512 3.34511 H 37.222667 17.907341 Z m 96.565649,-2.03797 c -1.30414,-0.58132 -2.93567,-0.87552 -4.85544,-0.87552 h -1.71589 v -2.05022 -2.05023 h -5.61116 c -3.086135,0 -5.610715,-0.0729 -5.610175,-0.16188 4.3e-4,-0.089 1.2977,-5.06622 2.88259,-11.06043 1.584895,-5.99423 4.274015,-16.16715 5.975835,-22.6065 l 3.0942,-11.70788 h 39.74674 39.74674 l -0.51823,1.88836 c -0.28503,1.03861 -3.31563,12.47403 -6.73467,25.41207 l -6.21642,23.52368 -29.65495,0.0392 c -28.17271,0.0373 -29.69863,0.0197 -30.52917,-0.35058 z m 53.6407,-5.08388 v -0.75535 h -11.97767 -11.97766 v 0.75535 0.75535 h 11.97766 11.97767 z m 7.8284,-20.01898 c 2.82192,-10.7112 5.12843,-19.54777 5.12559,-19.6368 -0.003,-0.089 -15.73798,-0.16185 -34.96699,-0.16185 h -34.96182 v 0.64743 0.64744 h 33.99066 c 28.34447,0 33.99066,0.0483 33.99066,0.29055 0,0.15979 -0.92167,3.77737 -2.04816,8.03905 -1.12648,4.2617 -3.09252,11.70601 -4.36898,16.54294 l -2.32082,8.79441 H 157.2703 144.15836 v 0.75535 0.75535 h 12.86789 12.86789 l -0.14567,0.70139 c -0.0801,0.38577 -0.19989,0.96032 -0.26615,1.27681 -0.12028,0.57429 -0.008,0.65479 1.11322,0.79573 0.11863,0.0149 2.52465,-8.73659 5.34655,-19.4478 z m -55.40231,15.0618 c 0.18485,-0.98533 0.74148,-1.43792 1.93375,-1.57231 0.90031,-0.10146 1.06069,-0.0464 1.71658,0.58928 l 0.72348,0.70124 1.4309,-1.02107 c 0.78699,-0.56158 1.39983,-1.08234 1.36188,-1.15725 -0.0379,-0.0749 -0.24953,-0.49013 -0.47017,-0.92273 -0.46315,-0.90809 -0.36868,-1.51604 0.37929,-2.44056 0.43992,-0.54376 0.6694,-0.6388 1.56321,-0.64744 l 1.0476,-0.0102 0.13955,-0.86326 c 0.0768,-0.47478 0.2002,-1.26463 0.27432,-1.7552 l 0.13478,-0.89197 -0.93954,-0.23658 c -1.17743,-0.29647 -1.41609,-0.58506 -1.56738,-1.89524 -0.11138,-0.96465 -0.0679,-1.09836 0.54699,-1.68183 0.36741,-0.34863 0.66801,-0.7202 0.66801,-0.8257 0,-0.28802 -1.96266,-2.78164 -2.12523,-2.70019 -0.0774,0.0388 -0.50151,0.2543 -0.94236,0.47887 -0.78145,0.39807 -0.8237,0.39832 -1.68567,0.0102 -1.06124,-0.47855 -1.28952,-0.85272 -1.28952,-2.11371 v -0.95754 l -1.13302,-0.14325 c -0.62317,-0.0788 -1.43861,-0.19733 -1.81211,-0.26345 -0.65174,-0.11532 -0.68494,-0.0854 -0.82501,0.74365 -0.18509,1.09552 -0.65107,1.51323 -1.87535,1.68104 -0.88053,0.12067 -1.04917,0.0674 -1.75826,-0.55514 -0.86214,-0.75697 -0.78473,-0.77234 -2.4708,0.49089 l -1.1341,0.8497 0.43271,0.70013 c 0.55065,0.89098 0.54646,1.49323 -0.0167,2.40454 -0.45529,0.73666 -0.77971,0.88702 -2.14031,0.99196 l -0.75535,0.0582 -0.24527,1.6186 c -0.13488,0.89023 -0.2088,1.68043 -0.16424,1.756 0.0445,0.0755 0.40866,0.19886 0.80912,0.27398 0.98219,0.18427 1.46366,0.77699 1.59779,1.967 0.10159,0.90119 0.0467,1.06043 -0.5931,1.72053 l -0.70504,0.72741 1.03672,1.41194 1.03673,1.41196 0.68935,-0.42605 c 0.81804,-0.50557 1.41667,-0.53687 2.22948,-0.1166 0.90772,0.4694 1.14999,0.88008 1.1837,2.00657 l 0.0308,1.02906 1.6186,0.22856 c 0.89024,0.12575 1.68767,0.19514 1.77211,0.15428 0.0844,-0.0408 0.21543,-0.40442 0.29113,-0.80794 z m -2.13518,-0.90576 c -0.0791,-0.0791 -0.14388,-0.35612 -0.14388,-0.61552 0,-1.70088 -3.20698,-3.5183 -4.75056,-2.69219 -0.66096,0.35373 -0.90451,-0.35085 -0.40463,-1.17059 0.88054,-1.44399 0.23688,-4.04777 -1.21192,-4.90258 -0.92282,-0.54448 -0.9201,-1.08444 0.006,-1.27394 1.02423,-0.20947 1.71766,-0.77744 2.33582,-1.91321 0.59221,-1.08806 0.72617,-2.13509 0.36058,-2.81821 -0.1512,-0.28252 -0.12677,-0.46488 0.0858,-0.64131 0.22812,-0.18932 0.50558,-0.13787 1.19538,0.22167 1.60205,0.83504 3.84865,0.26247 4.76073,-1.21331 0.56725,-0.91783 1.11015,-0.91295 1.29926,0.0114 0.21638,1.058 0.82136,1.77312 1.99475,2.35784 1.18576,0.59088 1.76095,0.66717 2.60646,0.34572 0.87246,-0.33171 1.12028,0.19467 0.54816,1.16434 -0.88571,1.50117 -0.14112,4.2559 1.32587,4.90525 0.81661,0.36147 0.83585,0.96294 0.0364,1.13853 -1.0957,0.24066 -1.96103,0.94307 -2.51952,2.04522 -0.58429,1.15304 -0.66986,1.82211 -0.34299,2.68185 0.32011,0.84198 -0.23682,1.1773 -0.98192,0.5912 -1.26169,-0.99244 -4.1993,-0.3228 -5.07192,1.15617 -0.42939,0.72776 -0.81146,0.93818 -1.12826,0.62138 z m 2.93736,-4.61701 c 1.06089,-0.2946 2.28059,-1.37901 2.77487,-2.46702 0.57077,-1.25639 0.50861,-2.44711 -0.19842,-3.80048 -1.05581,-2.02108 -3.50274,-2.88036 -5.55163,-1.94957 -3.04506,1.38334 -3.55843,5.46398 -0.93373,7.42217 1.29805,0.96842 2.44453,1.20157 3.90891,0.7949 z m -2.41845,-1.65991 c -2.89093,-1.47413 -1.75867,-5.71029 1.43829,-5.38101 1.19473,0.12308 1.95839,0.64446 2.36334,1.61367 0.65039,1.5566 -0.0229,3.17828 -1.59795,3.84944 -0.91037,0.38791 -1.31124,0.37297 -2.20368,-0.0821 z m 38.34766,-7.64062 -0.0561,-10.17675 -6.28363,-2.98819 -6.28364,-2.9882 -6.1796,3.0303 -6.1796,3.0303 v 10.13466 10.13464 h 12.51931 12.51931 z m -23.32799,8.738 c -0.0791,-0.0791 -0.14387,-3.91521 -0.14387,-8.52463 v -8.38076 h 11.00649 11.0065 v 8.52463 8.52464 h -10.86262 c -5.97444,0 -10.92736,-0.0647 -11.0065,-0.14388 z m 5.03566,-4.49611 v -1.83442 h 1.94231 1.94233 v -0.75534 -0.75535 h -2.69766 -2.69768 v 2.58977 2.58976 h 0.75535 0.75535 z m 13.16463,-0.75534 v -2.58977 h -2.58976 -2.58977 v 0.75535 0.75534 h 1.83442 1.83442 v 1.83442 1.83442 h 0.75534 0.75535 z m -8.63255,-6.79814 v -2.91348 h -3.0214 -3.02138 v 2.91348 2.91349 h 3.02138 3.0214 z m -4.53208,0 v -1.40278 h 1.51068 1.5107 v 1.40278 1.40279 h -1.5107 -1.51068 z m 13.16463,0 v -2.91348 h -2.91348 -2.91349 v 2.91348 2.91349 h 2.91349 2.91348 z m -4.31627,0 v -1.40278 h 1.40279 1.40279 v 1.40278 1.40279 h -1.40279 -1.40279 z m -8.05964,-8.79416 4.78129,-2.40311 1.58522,0.72989 c 0.87187,0.40144 3.13909,1.48146 5.03824,2.40005 l 3.45301,1.67017 -9.81952,0.004 -9.81952,0.004 4.78128,-2.4031 z m 36.54705,37.15254 c 0,-0.41908 13.21893,-50.36501 13.37695,-50.54292 0.0838,-0.0943 0.88362,-0.1429 1.77741,-0.10795 l 1.62506,0.0636 -4.25277,16.07812 c -2.33902,8.84297 -5.36174,20.27823 -6.71716,25.4117 l -2.46438,9.3336 -1.67256,4.3e-4 c -1.07076,2.1e-4 -1.67255,-0.0849 -1.67255,-0.23658 z M 17.907341,184.11231 v -3.3451 h 19.315326 19.315318 v 3.3451 3.34511 H 37.222667 17.907341 Z m 13.164636,-29.99634 v -4.90435 l 0.48558,0.12066 c 0.26707,0.0664 6.895248,1.49103 14.729289,3.16587 7.834032,1.67483 14.413656,3.09434 14.621378,3.15445 0.308818,0.0894 0.377669,0.36036 0.377669,1.48635 v 1.37705 l -14.513469,0.0857 c -7.98241,0.0472 -14.780541,0.16063 -15.10696,0.25216 l -0.593487,0.16642 z m 15.810718,-3.00538 c -5.60716,-1.21393 -10.252592,-2.2649 -10.323181,-2.3355 -0.07059,-0.0706 0.268248,-1.89163 0.752983,-4.04676 0.484733,-2.15512 0.881333,-3.95349 0.881333,-3.99636 0,-0.0428 0.518523,0.44056 1.152277,1.07432 0.999264,0.99926 3.394875,2.4884 4.003147,2.4884 0.18497,0 3.477119,-9.51196 3.477119,-10.04639 0,-0.1246 -0.432519,-0.43679 -0.961166,-0.69363 -1.23643,-0.6007 -1.731438,-1.35528 -1.679031,-2.55943 0.09343,-2.14665 1.281538,-3.33813 2.873447,-2.88158 0.853602,0.24481 0.944966,0.14146 1.311343,-1.48356 0.143208,-0.63517 0.378488,-1.20018 0.522855,-1.25558 0.223176,-0.0857 26.227446,2.0594 26.358053,2.17422 0.0876,0.077 1.572608,8.70035 1.572608,9.13214 0,0.23856 -0.201288,0.68964 -0.447295,1.00238 -0.390015,0.49583 -0.605251,0.56865 -1.681002,0.56865 h -1.23372 l -0.782076,5.6204 c -0.525593,3.77712 -0.899918,5.80022 -1.14136,6.16871 -0.197601,0.30157 -0.712411,0.69587 -1.144042,0.87622 -0.732132,0.3059 -1.139922,0.27576 -6.08182,-0.44966 -2.913375,-0.42765 -5.406791,-0.77755 -5.540932,-0.77755 -0.134142,0 -0.306224,0.33229 -0.382411,0.73841 -0.282003,1.50323 -0.79722,2.92982 -1.050894,2.90987 -0.143766,-0.0114 -4.849081,-1.01379 -10.456235,-2.22772 z m -5.470812,-9.49576 c -0.544673,-0.39977 -1.302706,-1.10145 -1.684519,-1.5593 -0.921617,-1.10517 -2.083895,-3.56783 -2.379063,-5.04083 -0.296111,-1.47769 -1.162776,-10.58082 -1.02086,-10.72275 0.09924,-0.0993 10.759491,0.76813 10.876312,0.88494 0.03091,0.0309 -0.04373,0.34282 -0.165836,0.69314 -0.175149,0.50243 -0.364834,0.64781 -0.898251,0.68846 -1.817436,0.13847 -3.043663,1.43624 -3.375545,3.57246 -0.322819,2.07787 0.190786,3.44502 1.608444,4.28145 0.413392,0.24391 0.711301,0.55204 0.662026,0.68474 -0.04927,0.13271 -0.6109,1.81942 -1.248038,3.74826 -0.637148,1.92882 -1.209277,3.50456 -1.271399,3.50162 -0.06215,-0.004 -0.558598,-0.33243 -1.103271,-0.73219 z m 110.664767,-0.7192 c -0.0507,-0.089 -0.15506,-0.51025 -0.23174,-0.93604 -0.20871,-1.15876 -1.39917,-2.40218 -2.97895,-3.11149 -2.01152,-0.90316 -3.03444,-0.93698 -4.52424,-0.1496 l -1.21943,0.64448 -0.7964,-0.8156 c -0.54758,-0.56077 -0.71585,-0.86538 -0.53856,-0.97494 0.47619,-0.29432 1.06663,-1.93123 1.07141,-2.97038 0.005,-1.071 -0.94063,-3.51337 -1.67427,-4.32464 -0.51649,-0.57115 -1.86467,-1.22782 -2.52076,-1.22782 -0.51905,0 -0.54812,-0.0615 -0.54812,-1.16136 v -1.16136 l 0.97506,-0.24551 c 1.76571,-0.44463 2.81686,-1.6918 3.70262,-4.39312 0.39059,-1.19111 0.15553,-2.58445 -0.6196,-3.67303 l -0.44832,-0.62959 0.74493,-0.74492 0.74491,-0.74491 1.13884,0.59084 c 0.79511,0.41252 1.44227,0.5852 2.14414,0.57214 1.16722,-0.0217 3.06351,-0.72025 4.10414,-1.51184 0.75928,-0.57757 1.52834,-1.98593 1.53641,-2.8136 0.004,-0.44272 0.10706,-0.48558 1.16415,-0.48558 h 1.15939 l 0.13212,0.82622 c 0.2209,1.38148 1.2667,2.57767 2.90709,3.32516 0.79208,0.36093 1.85401,0.70412 2.35988,0.76263 0.99288,0.11482 2.62625,-0.3834 3.09048,-0.94276 0.23071,-0.27799 0.37996,-0.21248 1.08553,0.4765 l 0.81804,0.79879 -0.51292,0.8837 c -0.8161,1.40604 -0.88345,2.28943 -0.31046,4.07146 0.66258,2.06065 1.74773,3.26866 3.35627,3.73627 l 1.15703,0.33636 v 1.03813 1.03814 l -0.92758,0.23357 c -1.53841,0.38737 -2.34249,1.08246 -3.16276,2.73412 -1.01881,2.05145 -1.11729,3.49262 -0.33778,4.94362 l 0.5705,1.06197 -0.72878,0.72877 -0.72876,0.72876 -0.9573,-0.5472 c -2.65114,-1.51539 -7.0437,0.30835 -7.77935,3.22993 l -0.24315,0.96559 h -1.0407 c -0.5724,0 -1.08225,-0.0729 -1.13301,-0.16186 z m 3.86804,-8.8895 c 1.25638,-0.55409 2.75144,-1.94631 3.3742,-3.14211 0.29756,-0.57138 0.48282,-1.41977 0.54791,-2.50919 0.13151,-2.20092 -0.30736,-3.50073 -1.69438,-5.01835 -2.33104,-2.55053 -5.90127,-2.941 -8.78016,-0.96027 -3.23293,2.2243 -3.77927,6.9521 -1.1495,9.94723 1.90584,2.17063 5.04191,2.85579 7.70193,1.68269 z m -44.89586,-2.44073 c -0.0421,-0.14837 -0.19025,-0.68807 -0.32931,-1.19934 -0.55461,-2.03912 -3.26068,-3.63934 -5.83902,-3.45283 -0.90476,0.0653 -1.49828,0.24307 -1.96492,0.58808 l -0.6686,0.49432 -0.8382,-0.8185 c -0.74356,-0.72606 -0.80295,-0.85743 -0.526,-1.16347 0.52159,-0.57635 0.97611,-1.88404 0.97611,-2.8084 0,-1.10643 -0.90474,-3.35641 -1.67605,-4.16815 -0.683105,-0.71889 -1.610385,-1.24497 -2.532325,-1.43664 -0.61338,-0.12752 -0.64745,-0.19046 -0.64745,-1.19597 0,-1.01851 0.0277,-1.06703 0.68371,-1.20121 0.37603,-0.0769 1.12207,-0.39674 1.65788,-0.71074 0.789175,-0.46249 1.120395,-0.86319 1.744195,-2.1101 0.97626,-1.95141 1.0611,-3.66079 0.25194,-5.07577 l -0.51287,-0.89689 0.78524,-0.76207 c 0.77796,-0.75498 0.79026,-0.75846 1.32478,-0.37607 0.69853,0.4997 1.84097,0.88169 2.63698,0.88169 0.91285,0 3.6724,-1.20688 4.33046,-1.89391 0.62295,-0.65036 1.23349,-1.95277 1.23349,-2.631244 0,-0.387713 0.13762,-0.43856 1.18698,-0.43856 1.08565,0 1.18737,0.04145 1.19171,0.485579 0.008,0.733165 0.726,2.138835 1.43296,2.802105 0.85828,0.80522 3.08409,1.67603 4.28401,1.67603 0.94322,0 1.9492,-0.33349 2.74745,-0.9108 0.3233,-0.23382 0.48478,-0.16338 1.1495,0.50133 l 0.77336,0.77336 -0.54484,0.80286 c -0.75938,1.11902 -0.92027,2.44651 -0.46679,3.85163 0.79878,2.47508 1.79436,3.58804 3.65478,4.08562 l 1.01199,0.27067 -0.0636,1.07697 c -0.0631,1.06767 -0.0711,1.07851 -0.92643,1.2553 -1.43047,0.29563 -2.41123,1.13977 -3.17309,2.73107 -0.963,2.01145 -1.03984,3.34428 -0.28212,4.89302 l 0.59081,1.20755 -0.70566,0.72807 c -0.70226,0.72455 -0.70837,0.72619 -1.26568,0.33859 -1.41683,-0.98538 -3.03571,-1.12704 -4.79356,-0.41948 -2.17622,0.87596 -3.25956,1.99812 -3.5418,3.66869 l -0.13979,0.82738 h -1.06688 c -0.66883,0 -1.0954,-0.1007 -1.14335,-0.26977 z m 4.00688,-8.95345 c 0.55185,-0.24468 1.39759,-0.8391 1.87942,-1.32093 1.35032,-1.35033 1.81588,-2.43926 1.9297,-4.51356 0.0914,-1.66625 0.0526,-1.87705 -0.58123,-3.16478 -0.78249,-1.58947 -1.78215,-2.55271 -3.43413,-3.30901 -1.01699,-0.4656 -1.38816,-0.52104 -2.92333,-0.43676 -2.70693,0.14864 -4.60201,1.38034 -5.76762,3.74864 -0.74217,1.50795 -0.74794,4.28928 -0.0114,5.70242 0.90682,1.74089 2.48577,3.08395 4.34475,3.69567 0.92334,0.30383 3.48066,0.0788 4.56429,-0.40169 z m -43.302855,5.11242 c -10.306081,-0.90773 -18.382233,-1.60485 -29.998096,-2.58938 -4.273115,-0.36219 -7.890692,-0.69929 -8.039064,-0.74913 -0.189446,-0.0636 -0.269768,-0.67611 -0.269768,-2.05702 v -1.9664 l 1.509565,-0.68409 c 1.482698,-0.67192 1.509585,-0.69866 1.510696,-1.5025 0.0036,-2.56636 1.409851,-6.63602 3.259558,-9.43274 2.798584,-4.2314 7.085903,-7.310491 12.078765,-8.674779 1.551616,-0.423976 2.32919,-0.496641 5.273015,-0.492814 2.911276,0.0038 3.738554,0.08176 5.273018,0.497302 3.854131,1.043633 6.925729,2.872321 9.75605,5.808321 3.61625,3.75131 5.484732,8.12686 5.69178,13.32893 l 0.09447,2.37395 2.058543,1.94233 2.058556,1.94232 -0.0038,1.56465 c -0.0025,1.48625 -0.02734,1.56323 -0.488555,1.53653 -0.267075,-0.0155 -4.661574,-0.39594 -9.765573,-0.84548 z M 44.235924,108.73938 c 0.701275,-1.33595 3.660238,-4.28294 5.215915,-5.19481 2.845022,-1.6676 6.427416,-2.41115 9.589556,-1.99035 4.61355,0.61394 8.579751,3.04531 10.87704,6.66784 0.53415,0.84227 1.068288,1.53044 1.186981,1.52927 0.118756,-8.2e-4 0.433779,-0.12321 0.700192,-0.2712 l 0.484372,-0.26906 -0.808091,-1.37704 c -0.988616,-1.68466 -3.664427,-4.39745 -5.302567,-5.37582 -2.925313,-1.74715 -5.634004,-2.491021 -8.993898,-2.469927 -3.946403,0.0248 -7.415798,1.228307 -10.406923,3.610147 -1.334932,1.06301 -3.218608,3.24597 -4.000537,4.63616 l -0.48748,0.86669 0.595386,0.32297 c 0.327468,0.17764 0.64412,0.32685 0.703673,0.3316 0.05954,0.005 0.350422,-0.45265 0.646381,-1.01647 z"
       id="path871"
       inkscape:connector-curvature="0"
       sodipodi:nodetypes="ccccccccccccccccscccscscscccccccscccccccccsccccscccccccccccccccccccccccccscccsccsccccscscccccccccccscscccsscsccccccccccsccccscccscccccccscccsccscccsccccccccscccccccccccccscsccccccccccccccccsccccccsccscccccccccccccccscccccsccccccccccccccccccccccccccccccccccccccccccccccccccccccccccccccccccccccccscscssccssccccccccccccscscscccccsscsscsccccscscsccsscccscccscccccccsccsccccccsscccccccscccscccccccsccccccccccccccsccccsssccccscccsccscccccccscssccscscccsccccsccccccsccccccssscccccccscccsccccscccccccccccccccccsccccc" />
  </g>
</svg>
