<?xml version="1.0" encoding="UTF-8" standalone="no"?>
<!-- Created with Inkscape (http://www.inkscape.org/) -->

<svg
   xmlns:dc="http://purl.org/dc/elements/1.1/"
   xmlns:cc="http://creativecommons.org/ns#"
   xmlns:rdf="http://www.w3.org/1999/02/22-rdf-syntax-ns#"
   xmlns:svg="http://www.w3.org/2000/svg"
   xmlns="http://www.w3.org/2000/svg"
   xmlns:sodipodi="http://sodipodi.sourceforge.net/DTD/sodipodi-0.dtd"
   xmlns:inkscape="http://www.inkscape.org/namespaces/inkscape"
   width="210mm"
   height="297mm"
   viewBox="0 0 210 297"
   version="1.1"
   id="svg8"
   inkscape:version="0.92.4 (5da689c313, 2019-01-14)"
   sodipodi:docname="cad war 2.svg">
  <defs
     id="defs2">
    <pattern
       y="0"
       x="0"
       height="6"
       width="6"
       patternUnits="userSpaceOnUse"
       id="EMFhbasepattern" />
  </defs>
  <sodipodi:namedview
     id="base"
     pagecolor="#ffffff"
     bordercolor="#666666"
     borderopacity="1.0"
     inkscape:pageopacity="0.0"
     inkscape:pageshadow="2"
     inkscape:zoom="0.175"
     inkscape:cx="288.0901"
     inkscape:cy="621.75883"
     inkscape:document-units="mm"
     inkscape:current-layer="layer1"
     showgrid="false"
     inkscape:window-width="1366"
     inkscape:window-height="706"
     inkscape:window-x="-8"
     inkscape:window-y="-8"
     inkscape:window-maximized="1" />
  <metadata
     id="metadata5">
    <rdf:RDF>
      <cc:Work
         rdf:about="">
        <dc:format>image/svg+xml</dc:format>
        <dc:type
           rdf:resource="http://purl.org/dc/dcmitype/StillImage" />
        <dc:title></dc:title>
      </cc:Work>
    </rdf:RDF>
  </metadata>
  <g
     inkscape:label="Layer 1"
     inkscape:groupmode="layer"
     id="layer1">
    <path
       style="fill:#020030;fill-opacity:1;stroke-width:0.92503601"
       d="m 31.548627,239.6045 -2.70395,-2.70395 V 138.2419 39.583261 l 2.71174,-2.71175 2.71175,-2.71175 51.617372,0.23906 51.617371,0.23905 21.06132,23.91132 21.06131,23.91132 v 77.220019 77.22002 l -2.70395,2.70395 -2.70395,2.70395 H 104.23511 34.252577 Z m 37.84078,-9.2512 c 5.127182,-0.99086 5.577822,-1.58918 4.615652,-6.12816 l -0.79391,-3.74525 -5.440432,0.89975 c -6.80949,1.12617 -12.86566,-0.8511 -15.97304,-5.215 -2.83516,-3.98162 -3.41122,-12.46179 -1.18229,-17.40467 2.81679,-6.24651 10.95328,-9.52155 18.4872,-7.44134 2.66907,0.73696 3.770932,0.71618 4.263272,-0.0805 0.88488,-1.43175 1.95966,-7.2863 1.4341,-7.81185 -0.22869,-0.22869 -3.080592,-0.85738 -6.337552,-1.39708 -12.00147,-1.98871 -23.04691,3.00991 -28.05478,12.69621 -2.38397,4.6111 -2.77177,6.3644 -2.75139,12.43931 0.0192,5.71925 0.47111,7.94102 2.36313,11.61759 4.82775,9.38123 16.63351,14.03236 29.37004,11.57094 z m 89.400833,-3.25666 c 5.81315,-2.84411 9.05181,-6.89291 11.18594,-13.98406 4.00105,-13.29449 -2.1517,-25.82039 -14.48162,-29.48199 -4.94117,-1.46737 -18.41446,-1.95949 -23.85526,-0.87133 l -2.89074,0.57815 v 23.43052 23.43052 l 6.244,0.27353 c 10.57452,0.46323 18.14727,-0.61086 23.79768,-3.37534 z M 139.849,206.12087 v -15.83679 l 5.56264,0.40236 c 6.39447,0.46254 9.79558,2.48662 12.24287,7.28604 2.13218,4.18149 2.03551,11.41776 -0.21891,16.38487 -2.11183,4.65299 -7.32585,7.54729 -13.6552,7.58 l -3.9314,0.0203 z m -47.884661,17.91812 1.69904,-5.78147 h 6.789971 6.78997 l 1.72196,6.01273 1.72197,6.01273 h 5.79303 c 3.18617,0 5.78922,-0.3122 5.78456,-0.69377 -0.005,-0.38158 -3.24414,-11.10043 -7.19884,-23.81968 l -7.19038,-23.1259 h -7.25166 -7.251641 l -6.66408,21.73835 c -3.66524,11.95609 -6.97941,22.6957 -7.36483,23.86581 -0.68715,2.08617 -0.58794,2.12208 5.11057,1.85008 l 5.81132,-0.2774 z m 3.84847,-16.18813 c 0.31972,-1.14473 1.25813,-4.78706 2.08537,-8.09406 1.34862,-5.39135 3.099301,-9.28045 3.099301,-6.88502 0,0.48691 1.0013,4.52469 2.22511,8.97285 l 2.22511,8.08756 h -5.1081 c -4.852851,0 -5.079061,-0.10401 -4.526791,-2.08133 z M 171.30022,130.3791 V 87.827441 h -18.77823 c -13.37191,0 -19.09781,-0.31959 -19.88827,-1.11004 -0.79985,-0.79985 -1.11005,-7.13306 -1.11005,-22.66338 V 42.500681 H 84.346839 37.169997 v 65.215029 65.21504 h 67.065113 67.06511 z m -96.625081,20.81331 c 0.33377,-1.52631 0.98225,-4.27975 1.44106,-6.11874 0.45881,-1.83899 0.59525,-4.54472 0.30321,-6.01273 -0.37171,-1.86844 0.73767,-6.11633 3.69821,-14.16067 2.32607,-6.32036 4.22922,-11.62776 4.22922,-11.79421 0,-0.16646 -1.04067,-0.30265 -2.31259,-0.30265 -1.6959,0 -2.31259,0.49335 -2.31259,1.85007 0,3.95129 -1.68899,1.59788 -1.99206,-2.77568 -0.22555,-3.25507 0.0221,-4.62558 0.83576,-4.62518 0.63596,3.2e-4 1.1563,0.85948 1.1563,1.90926 0,1.58207 0.49351,1.85908 2.88409,1.61881 2.6322,-0.26455 3.07119,-0.80807 5.02616,-6.22299 1.60261,-4.43894 2.00956,-7.051859 1.61593,-10.375449 -0.679,-5.73305 0.8625,-9.38032 4.87866,-11.54317 3.0926,-1.66547 3.17084,-1.85077 3.17084,-7.50998 0,-4.54098 0.30164,-5.80238 1.38755,-5.80238 1.08689,0 1.387561,1.26574 1.387561,5.84141 0,5.75056 0.0497,5.8651 3.19582,7.36538 4.06518,1.93855 6.40916,6.31689 5.7564,10.75243 -0.34217,2.325 0.28984,5.42221 2.09508,10.267109 2.39951,6.43981 2.79297,6.95858 5.48175,7.22764 2.40332,0.2405 2.8967,-0.0352 2.8967,-1.61881 0,-1.04978 0.41627,-1.90868 0.92504,-1.90868 0.50877,0 0.92504,2.08133 0.92504,4.62518 0,2.54385 -0.41627,4.62518 -0.92504,4.62518 -0.50877,0 -0.92504,-0.83254 -0.92504,-1.85008 0,-1.35672 -0.61669,-1.85007 -2.31259,-1.85007 -1.27192,0 -2.31259,0.18173 -2.31259,0.40383 0,0.22211 1.85714,5.45371 4.12698,11.62578 2.71772,7.38996 3.95712,12.07117 3.62958,13.70889 -0.27357,1.36782 0.12651,5.18757 0.88906,8.48833 0.76255,3.30077 1.27786,6.10999 1.14514,6.24271 -0.13272,0.13272 -1.39632,-1.88081 -2.808,-4.47452 -1.41167,-2.59371 -3.73902,-5.76039 -5.17187,-7.03706 -1.88902,-1.68314 -4.55801,-7.27705 -9.70904,-20.34907 -3.90712,-9.91531 -7.407071,-17.6777 -7.777651,-17.24976 -0.37058,0.42794 -3.73792,8.62753 -7.48296,18.22133 -4.52917,11.6025 -7.46353,17.87201 -8.76339,18.72371 -1.07482,0.70425 -2.93381,3.0533 -4.13109,5.22013 -1.19729,2.16681 -2.75617,4.77219 -3.46419,5.78973 -1.19613,1.71902 -1.24433,1.65349 -0.68045,-0.92503 z M 104.27715,96.657331 c 1.25627,-1.25626 2.21458,-3.355348 2.27055,-4.69634 0.18171,-4.353411 -4.40888,-7.783817 -6.912551,-7.83369 -3.174883,-0.06324 -6.737172,2.478438 -7.31341,4.2041 -1.92766,5.02339 1.66222,10.59647 6.82567,10.59647 1.802311,0 3.698501,-0.83929 5.129741,-2.27054 z m -7.868001,-2.77277 c -1.6885,-2.0345 0.0257,-5.084833 2.622849,-5.084833 2.709362,0 4.009622,2.486873 2.779532,4.785303 -1.06319,1.9866 -3.872961,2.14239 -5.402381,0.29953 z"
       id="path884"
       inkscape:connector-curvature="0"
       sodipodi:nodetypes="ccccccccccccccccccccscscccccccccccsscccscccccccccccccccscscccsccccccsscscccscscccccccccscssssccscsscsssscscsssssssccssccssscccccsscsccscc" />
  </g>
</svg>
