<?xml version="1.0" encoding="UTF-8" standalone="no"?>
<!-- Created with Inkscape (http://www.inkscape.org/) -->

<svg
   xmlns:dc="http://purl.org/dc/elements/1.1/"
   xmlns:cc="http://creativecommons.org/ns#"
   xmlns:rdf="http://www.w3.org/1999/02/22-rdf-syntax-ns#"
   xmlns:svg="http://www.w3.org/2000/svg"
   xmlns="http://www.w3.org/2000/svg"
   xmlns:sodipodi="http://sodipodi.sourceforge.net/DTD/sodipodi-0.dtd"
   xmlns:inkscape="http://www.inkscape.org/namespaces/inkscape"
   width="210mm"
   height="297mm"
   viewBox="0 0 210 297"
   version="1.1"
   id="svg8"
   inkscape:version="0.92.4 (5da689c313, 2019-01-14)"
   sodipodi:docname="cesa white.svg">
  <defs
     id="defs2">
    <pattern
       y="0"
       x="0"
       height="6"
       width="6"
       patternUnits="userSpaceOnUse"
       id="EMFhbasepattern" />
  </defs>
  <sodipodi:namedview
     id="base"
     pagecolor="#ffffff"
     bordercolor="#666666"
     borderopacity="1.0"
     inkscape:pageopacity="0.0"
     inkscape:pageshadow="2"
     inkscape:zoom="0.35"
     inkscape:cx="313.57046"
     inkscape:cy="586.93639"
     inkscape:document-units="mm"
     inkscape:current-layer="layer1"
     showgrid="false"
     inkscape:window-width="1366"
     inkscape:window-height="706"
     inkscape:window-x="-8"
     inkscape:window-y="-8"
     inkscape:window-maximized="1" />
  <metadata
     id="metadata5">
    <rdf:RDF>
      <cc:Work
         rdf:about="">
        <dc:format>image/svg+xml</dc:format>
        <dc:type
           rdf:resource="http://purl.org/dc/dcmitype/StillImage" />
        <dc:title></dc:title>
      </cc:Work>
    </rdf:RDF>
  </metadata>
  <g
     inkscape:label="Layer 1"
     inkscape:groupmode="layer"
     id="layer1">
    <path
       sodipodi:nodetypes="scscccccsscscccccccccccccc"
       inkscape:connector-curvature="0"
       id="path1656"
       d="m 20.350144,161.77705 c 0,-1.39671 2.070322,-4.16327 8.941569,-11.9481 3.077747,-3.48787 5.2778,-6.74931 5.2778,-7.82562 0,-1.01493 -1.135367,-3.27913 -2.523037,-5.03076 -3.235214,-4.08508 -6.237806,-10.67022 -7.994984,-17.53252 -1.831438,-7.15236 -1.240941,-21.65642 1.175628,-28.873203 5.065756,-15.130343 13.988538,-27.343634 24.817017,-33.966145 11.945951,-6.27154 26.814867,-8.598999 38.894127,-4.627183 10.233502,3.461036 26.765656,14.049555 26.765656,17.143229 0,0.798952 -6.24853,8.587899 -13.88654,17.307131 -32.352126,36.931181 -57.898317,62.273111 -72.964066,72.379921 -6.277172,4.21106 -8.50317,4.98953 -8.50317,2.97325 z m 23.4204,-31.20907 c 0,-0.77212 -1.314306,-3.31206 -2.919385,-5.64578 -10.14046,-14.73784 -7.867938,-32.6591 6.006974,-47.36652 8.725054,-9.248908 19.0024,-14.373977 29.115124,-14.519189 6.509792,-0.09123 11.290141,1.502369 17.920717,5.982547 4.817031,3.254988 5.505052,3.498883 6.649366,2.354753 1.14431,-1.144313 1.03068,-1.532978 -1.097786,-3.754227 C 98.140191,66.256583 94.582888,63.839838 91.540929,62.24908 77.886113,55.107548 59.866085,58.716913 46.431363,71.284505 37.484425,79.653738 33.000219,87.435342 30.76438,98.4695 c -1.265098,6.24201 -1.263308,7.23459 0.009,13.55667 1.477139,7.29122 4.006439,13.0696 7.579846,17.316 2.392412,2.84369 5.408424,3.52733 5.408424,1.22581 z"
       style="fill:#fbbe03;fill-opacity:1;stroke-width:0.83643985"
       inkscape:export-xdpi="300"
       inkscape:export-ydpi="300" />
    <g
       inkscape:export-ydpi="300"
       inkscape:export-xdpi="300"
       style="fill:#ffffff;fill-opacity:1"
       id="g1664"
       transform="matrix(6.0583926,0,0,6.0583926,-431.56963,413.68444)">
      <path
         inkscape:export-ydpi="150"
         inkscape:export-xdpi="150"
         style="fill:#ffffff;fill-opacity:1;stroke:none;stroke-width:0.3084386px;stroke-linecap:butt;stroke-linejoin:miter;stroke-opacity:1"
         d="m 79.252575,-43.154906 c 4.07135,-3.999195 8.12045,-8.246905 11.57313,-12.658555 l 3.82323,2.997044 -0.9981,1.895467 -0.0712,-1.642895 -2.36836,-1.707431 -3.41485,4.241031 3.24961,2.91916 -1.30574,2.900252 -0.34661,-2.074083 -3.19454,-2.258214 c -1.37062,1.739209 -2.8509,3.500358 -4.73673,5.342608 l 4.40626,6.333998 -0.71602,1.101566 z"
         id="path1658"
         inkscape:connector-curvature="0"
         sodipodi:nodetypes="ccccccccccccccc" />
      <path
         inkscape:connector-curvature="0"
         id="path1660"
         d="m 95.419922,-49.298828 c -0.42878,0.100741 -0.77172,0.389359 -1.041016,0.757812 -0.269296,0.368454 -0.477755,0.825769 -0.652344,1.335938 -0.349176,1.020337 -0.559895,2.257953 -0.71875,3.394531 -0.158854,1.136579 -0.265735,2.180837 -0.376953,2.746094 l -0.002,0.0059 v 0.0039 c -0.132081,0.803974 -0.202236,2.156602 -0.332031,3.576172 -0.129795,1.41957 -0.323391,2.900371 -0.658203,3.853516 -0.167406,0.476573 -0.375751,0.807152 -0.552734,0.9375 -0.176984,0.130348 -0.305292,0.156278 -0.628907,-0.0332 -0.64723,-0.378962 -1.761806,-1.829908 -3.226562,-4.849609 l -0.63086,0.304687 c 1.484479,3.060362 2.54012,4.584128 3.503907,5.148437 0.481893,0.282155 1.019605,0.271711 1.396484,-0.0059 0.376879,-0.27757 0.608743,-0.728396 0.798828,-1.269531 0.38017,-1.082271 0.563976,-2.585054 0.695313,-4.021484 0.130897,-1.431626 0.205551,-2.799113 0.322265,-3.515626 l 0.002,-0.01172 c 0.124864,-0.638922 0.224965,-1.656083 0.38086,-2.771485 0.156556,-1.120136 0.368801,-2.32864 0.689453,-3.265625 0.160326,-0.468492 0.348747,-0.866668 0.554687,-1.148437 0.205941,-0.281769 0.415462,-0.438251 0.636719,-0.490235 0.221257,-0.05198 0.492284,-0.01636 0.869141,0.208985 0.376856,0.225344 0.841514,0.643795 1.376953,1.298828 l 0.541016,-0.443359 c -0.567634,-0.694419 -1.076135,-1.166589 -1.558594,-1.455078 -0.482459,-0.28849 -0.959892,-0.391757 -1.388672,-0.291016 z"
         style="color:#000000;font-style:normal;font-variant:normal;font-weight:normal;font-stretch:normal;font-size:medium;line-height:normal;font-family:sans-serif;font-variant-ligatures:normal;font-variant-position:normal;font-variant-caps:normal;font-variant-numeric:normal;font-variant-alternates:normal;font-feature-settings:normal;text-indent:0;text-align:start;text-decoration:none;text-decoration-line:none;text-decoration-style:solid;text-decoration-color:#000000;letter-spacing:normal;word-spacing:normal;text-transform:none;writing-mode:lr-tb;direction:ltr;text-orientation:mixed;dominant-baseline:auto;baseline-shift:baseline;text-anchor:start;white-space:normal;shape-padding:0;clip-rule:nonzero;display:inline;overflow:visible;visibility:visible;opacity:1;isolation:auto;mix-blend-mode:normal;color-interpolation:sRGB;color-interpolation-filters:linearRGB;solid-color:#000000;solid-opacity:1;vector-effect:none;fill:#ffffff;fill-opacity:1;fill-rule:nonzero;stroke:none;stroke-width:0.69945139;stroke-linecap:butt;stroke-linejoin:miter;stroke-miterlimit:4;stroke-dasharray:none;stroke-dashoffset:0;stroke-opacity:1;color-rendering:auto;image-rendering:auto;shape-rendering:auto;text-rendering:auto;enable-background:accumulate" />
      <path
         inkscape:export-ydpi="150"
         inkscape:export-xdpi="150"
         style="fill:#ffffff;fill-opacity:1;stroke:none;stroke-width:0.3084386px;stroke-linecap:butt;stroke-linejoin:miter;stroke-opacity:1"
         d="m 91.486655,-29.651263 8.48206,-18.946937 1.597275,1.266799 -0.11017,15.697321 -6.334015,-1.321881 z"
         id="path1662"
         inkscape:connector-curvature="0" />
    </g>
  </g>
</svg>
