<?xml version="1.0" encoding="UTF-8" standalone="no"?>
<!-- Created with Inkscape (http://www.inkscape.org/) -->

<svg
   xmlns:dc="http://purl.org/dc/elements/1.1/"
   xmlns:cc="http://creativecommons.org/ns#"
   xmlns:rdf="http://www.w3.org/1999/02/22-rdf-syntax-ns#"
   xmlns:svg="http://www.w3.org/2000/svg"
   xmlns="http://www.w3.org/2000/svg"
   xmlns:sodipodi="http://sodipodi.sourceforge.net/DTD/sodipodi-0.dtd"
   xmlns:inkscape="http://www.inkscape.org/namespaces/inkscape"
   width="210mm"
   height="297mm"
   viewBox="0 0 210 297"
   version="1.1"
   id="svg8"
   inkscape:version="0.92.4 (5da689c313, 2019-01-14)"
   sodipodi:docname="Plan it.svg">
  <defs
     id="defs2">
    <pattern
       y="0"
       x="0"
       height="6"
       width="6"
       patternUnits="userSpaceOnUse"
       id="EMFhbasepattern" />
  </defs>
  <sodipodi:namedview
     id="base"
     pagecolor="#ffffff"
     bordercolor="#666666"
     borderopacity="1.0"
     inkscape:pageopacity="0.0"
     inkscape:pageshadow="2"
     inkscape:zoom="0.24748737"
     inkscape:cx="-99.446181"
     inkscape:cy="497.31587"
     inkscape:document-units="mm"
     inkscape:current-layer="layer1"
     showgrid="false"
     inkscape:window-width="1366"
     inkscape:window-height="706"
     inkscape:window-x="-8"
     inkscape:window-y="-8"
     inkscape:window-maximized="1" />
  <metadata
     id="metadata5">
    <rdf:RDF>
      <cc:Work
         rdf:about="">
        <dc:format>image/svg+xml</dc:format>
        <dc:type
           rdf:resource="http://purl.org/dc/dcmitype/StillImage" />
        <dc:title></dc:title>
      </cc:Work>
    </rdf:RDF>
  </metadata>
  <g
     inkscape:label="Layer 1"
     inkscape:groupmode="layer"
     id="layer1">
    <path
       style="fill:#020030;fill-opacity:1;stroke:#020030;stroke-width:1.27962863;stroke-miterlimit:4;stroke-dasharray:none;stroke-opacity:1"
       d="m 27.094299,220.31572 c -0.573515,-0.63373 -0.622582,-5.14934 -0.622582,-57.2933 0,-43.5248 0.104361,-56.70967 0.451424,-57.05677 0.345529,-0.34553 9.962848,-0.45143 40.995719,-0.45143 h 40.54431 c 2.10185,0.26662 1.9317,3.4613 0,3.76187 H 69.348378 30.233583 v 53.88881 53.88881 l 51.443594,-0.004 c 28.293983,-0.003 51.632503,-0.12512 51.863403,-0.27317 0.29594,-0.18977 0.43372,-4.63972 0.46701,-15.08225 l 0.0472,-14.81306 -3.59177,-0.25247 c -1.97549,-0.13891 -3.75153,-0.15376 -3.94676,-0.0331 -0.20899,0.12924 -0.35496,4.61005 -0.35496,10.89717 0,10.60769 -0.006,10.68165 -0.83608,11.26342 -0.72809,0.50996 -3.13312,0.5856 -18.62127,0.5856 -17.2836,0 -17.806398,-0.0212 -18.537555,-0.75236 -0.680719,-0.68072 -0.752375,-1.25397 -0.752375,-6.019 v -5.26661 h -3.761857 -3.761872 v 5.26661 c 0,4.76503 -0.07166,5.33828 -0.752373,6.019 -0.733024,0.73301 -1.253957,0.75236 -20.255809,0.75236 -18.416842,0 -19.53811,-0.0382 -20.126,-0.68794 -0.572022,-0.63206 -0.622596,-4.33896 -0.622596,-45.6315 0,-34.45451 0.105356,-45.04891 0.451425,-45.39498 0.339698,-0.3397 5.362198,-0.45143 20.292777,-0.45143 h 19.841352 l 0.585613,0.83608 c 0.516243,0.73704 0.585611,3.90087 0.585611,26.7093 v 25.87321 h 3.761872 3.761871 v -3.86626 c 0,-5.75604 -0.296466,-5.53842 7.545073,-5.53842 h 6.373863 v -3.94997 -3.94996 h -6.373863 c -6.160102,0 -6.393488,-0.028 -6.959462,-0.83608 -0.508263,-0.72565 -0.585611,-3.0002 -0.585611,-17.2209 0,-14.22071 0.07735,-16.49527 0.585611,-17.22092 0.533685,-0.76194 0.89546,-0.83608 4.079756,-0.83608 2.907313,0 3.598698,0.1156 4.11672,0.68795 1.46573,1.61961 0.188945,3.07393 -2.698667,3.07393 h -1.945361 v 14.29512 14.2951 h 6.180223 c 5.116794,0 6.281944,0.10166 6.771374,0.59116 0.8769,0.8769 0.8769,13.36446 0,14.24136 -0.48943,0.48944 -1.65458,0.59116 -6.771374,0.59116 h -6.180223 v 4.06616 c 0,5.73045 0.280398,5.49795 -6.812963,5.64888 -6.95871,0.14807 -7.974423,-0.004 -8.558285,-1.286 -0.320537,-0.70351 -0.436056,-7.67358 -0.428533,-25.85662 0.0057,-13.69141 0.008,-25.27437 0.0051,-25.7399 l -0.0053,-0.84642 H 58.823758 41.895337 v 42.13296 42.13297 H 58.823758 75.75217 v -5.07854 c 0,-6.94393 -0.441923,-6.58327 8.066692,-6.58327 8.204668,0 7.733167,-0.4065 7.733167,6.66697 v 4.99484 h 15.423671 15.42368 v -10.69447 c 0,-9.22065 0.0815,-10.77593 0.59115,-11.28562 0.50097,-0.50097 1.80645,-0.58938 8.55825,-0.57953 4.38192,0.006 9.19712,0.17136 10.70046,0.36662 6.70895,0.87137 13.2032,5.05314 17.02116,10.96026 1.35199,2.09178 3.10747,6.92518 3.56734,9.82203 l 0.22395,1.41071 h 3.93291 3.93292 V 185.07749 164.95148 H 148.0384 c -21.69684,0 -22.92153,-0.0358 -23.51169,-0.68796 -0.89512,-0.98908 -0.92607,-12.63026 -0.037,-13.89964 l 0.58563,-0.83608 h 22.92608 22.92608 v -14.29477 -14.29512 h -14.26824 c -12.46955,0 -14.34276,-0.0745 -14.85939,-0.59116 -0.75502,-0.75502 -0.75502,-1.82455 0,-2.57956 0.51852,-0.51853 2.5198,-0.59116 16.28891,-0.59116 11.70777,0 15.81248,0.11474 16.14917,0.45143 0.64981,0.64981 0.64981,34.5613 0,35.21112 -0.34121,0.34121 -6.03571,0.45143 -23.32361,0.45143 h -22.87211 v 3.94996 3.94997 h 22.87218 c 17.28788,0 22.98239,0.11019 23.32359,0.45142 0.34128,0.34128 0.45143,6.07154 0.45143,23.48481 0,20.43789 -0.0667,23.10003 -0.59115,23.62457 -0.48199,0.48199 -1.57913,0.59114 -5.94163,0.59114 h -5.35047 l -0.10293,3.41044 c -0.0566,1.87574 0.0635,3.6109 0.26697,3.85592 0.26711,0.32173 3.01742,0.44548 9.90043,0.44548 h 9.53057 l 0.0954,-53.8888 0.0953,-53.88882 h -12.16906 c -11.31143,0 -12.21293,-0.0485 -12.79165,-0.68794 -0.80919,-0.89416 -0.78826,-1.67882 0.0654,-2.45134 0.61337,-0.55509 2.15823,-0.62259 14.24905,-0.62259 14.47995,0 14.25194,-0.0297 14.41073,1.88093 0.0429,0.51727 0.0594,26.02478 0.0365,56.68336 -0.0375,50.13801 -0.10109,55.8023 -0.63279,56.33401 -0.88484,0.88484 -24.77181,0.88993 -26.03443,0.006 -0.82073,-0.57484 -0.8361,-0.73705 -0.8361,-8.82605 0,-7.60444 -0.0681,-8.45491 -0.8823,-11.01887 -1.70949,-5.38319 -5.30644,-9.43384 -10.67283,-12.01899 -2.63262,-1.26822 -3.56689,-1.51869 -6.30113,-1.68928 l -3.21021,-0.20027 v 16.41716 c 0,15.9156 -0.023,16.44016 -0.75238,17.16955 -0.74542,0.74543 -1.25395,0.75238 -55.053109,0.75238 -52.127918,0 -54.325652,-0.0276 -54.923324,-0.68796 z M 106.0746,120.40048 c -0.56741,-0.86599 -0.63537,-1.4168 -0.0771,-2.26877 0.54962,-0.83882 1.26083,-0.93543 4.02915,-1.0345 l 3.05345,-0.10934 2.1907,-6.54068 c 1.20488,-3.59738 2.32836,-6.66367 2.49661,-6.814 0.16826,-0.15031 5.97695,-4.388851 12.9082,-9.418958 6.93125,-5.030106 13.78726,-10.017772 15.23558,-11.083717 1.44832,-1.06593 5.51114,-4.027844 9.0285,-6.582027 3.51734,-2.554183 8.25,-5.994231 10.51701,-7.644551 5.35042,-3.894952 6.84549,-4.568778 10.04483,-4.52717 5.81729,0.07565 10.10784,4.456824 10.07721,10.290051 -0.0146,2.792356 -0.59893,4.71578 -1.98417,6.531937 -0.53017,0.695085 -11.17258,8.687731 -23.64982,17.761435 -12.47723,9.07372 -24.36265,17.73065 -26.41203,19.23765 l -3.72618,2.74 h -11.40669 -11.4067 z m 18.82995,-3.76831 c -0.45363,-1.18214 -4.92301,-6.9686 -5.1757,-6.7009 -0.47918,0.50767 -2.55498,6.78421 -2.32106,7.01814 0.12469,0.12469 1.90935,0.22661 3.96604,0.22661 3.10694,0 3.70411,-0.092 3.53072,-0.54385 z m 7.70645,-2.58037 c 3.94223,-2.84337 37.72388,-27.42042 37.89305,-27.568188 0.17794,-0.155433 -2.31403,-3.644624 -2.63747,-3.692937 -0.26955,-0.04024 -40.9529,29.515385 -40.9529,29.751475 0,0.29539 2.44926,3.47622 2.68783,3.49063 0.13351,0.009 1.4877,-0.88337 3.00949,-1.98098 z m -2.74284,-8.60533 c 2.61656,-1.89938 5.94235,-4.32194 7.39067,-5.38348 1.44832,-1.061539 3.73365,-2.726236 5.07853,-3.699337 1.34486,-0.973087 4.64591,-3.385784 7.33564,-5.361559 2.68974,-1.975761 7.38352,-5.386213 10.43062,-7.578771 l 5.5402,-3.986484 -1.27898,-1.726656 c -0.70342,-0.94966 -1.45917,-1.726655 -1.67941,-1.726655 -0.22025,0 -2.81494,1.768458 -5.76596,3.929907 -2.95104,2.161444 -6.46588,4.735175 -7.81074,5.719394 -1.34488,0.984205 -7.94695,5.781391 -14.6713,10.660402 -6.72435,4.878999 -12.27226,9.003599 -12.32871,9.165749 -0.15201,0.43667 2.10864,3.44092 2.58923,3.44092 0.22708,0 2.55367,-1.55403 5.17021,-3.45343 z m 50.95477,-27.083749 c 0.40861,-0.553571 0.82442,-1.854429 0.92401,-2.890797 0.38435,-4.000182 -2.5423,-7.200232 -6.58509,-7.200232 -1.66983,0 -2.24991,0.23402 -4.66928,1.883709 -1.51943,1.036038 -3.14753,2.1825 -3.61803,2.547691 l -0.85545,0.663982 3.2558,4.505818 c 1.79069,2.4782 3.58995,4.874147 3.99833,5.324321 l 0.74254,0.818493 3.03211,-2.323247 c 1.66767,-1.277785 3.36645,-2.776167 3.77506,-3.329738 z"
       id="path934"
       inkscape:connector-curvature="0"
       sodipodi:nodetypes="cscsccccccccscccscscscccscscscsccscccsscccscscssscccsccscscccccccccccssscccsccscscccccscccccccsccsccscccscscscccscccsscscsccsccccscsccccscsssssssccsccccccccsccccsccscssscssssscssccssccscccc" />
  </g>
</svg>
