<?xml version="1.0" encoding="UTF-8" standalone="no"?>
<!-- Created with Inkscape (http://www.inkscape.org/) -->

<svg
   xmlns:dc="http://purl.org/dc/elements/1.1/"
   xmlns:cc="http://creativecommons.org/ns#"
   xmlns:rdf="http://www.w3.org/1999/02/22-rdf-syntax-ns#"
   xmlns:svg="http://www.w3.org/2000/svg"
   xmlns="http://www.w3.org/2000/svg"
   xmlns:sodipodi="http://sodipodi.sourceforge.net/DTD/sodipodi-0.dtd"
   xmlns:inkscape="http://www.inkscape.org/namespaces/inkscape"
   width="210mm"
   height="297mm"
   viewBox="0 0 210 297"
   version="1.1"
   id="svg8"
   inkscape:version="0.92.4 (5da689c313, 2019-01-14)"
   sodipodi:docname="quizophilic.svg">
  <defs
     id="defs2">
    <pattern
       y="0"
       x="0"
       height="6"
       width="6"
       patternUnits="userSpaceOnUse"
       id="EMFhbasepattern" />
  </defs>
  <sodipodi:namedview
     id="base"
     pagecolor="#ffffff"
     bordercolor="#666666"
     borderopacity="1.0"
     inkscape:pageopacity="0.0"
     inkscape:pageshadow="2"
     inkscape:zoom="0.24748737"
     inkscape:cx="-225.56126"
     inkscape:cy="618.35635"
     inkscape:document-units="mm"
     inkscape:current-layer="layer1"
     showgrid="false"
     inkscape:window-width="1366"
     inkscape:window-height="706"
     inkscape:window-x="-8"
     inkscape:window-y="-8"
     inkscape:window-maximized="1" />
  <metadata
     id="metadata5">
    <rdf:RDF>
      <cc:Work
         rdf:about="">
        <dc:format>image/svg+xml</dc:format>
        <dc:type
           rdf:resource="http://purl.org/dc/dcmitype/StillImage" />
        <dc:title></dc:title>
      </cc:Work>
    </rdf:RDF>
  </metadata>
  <g
     inkscape:label="Layer 1"
     inkscape:groupmode="layer"
     id="layer1">
    <path
       style="fill:#020030;fill-opacity:1;stroke-width:0.15189725"
       d="m 101.92845,56.097769 v 7.38e-4 c -6.067649,0.01502 -12.363879,1.037974 -17.848414,2.903031 -1.336674,0.454535 -2.942658,0.99724 -3.569087,1.205712 -1.574676,0.523875 -5.952562,2.736375 -8.15169,4.119831 -1.833658,1.153581 -5.255835,3.742393 -6.371582,4.819896 l -0.943279,0.911497 0.07909,0.773991 0.07984,0.77473 -1.165795,1.275945 c -4.38189,4.794485 -7.215539,10.045997 -8.763046,16.238329 -0.704652,2.819651 -1.022149,5.161948 -1.142139,8.430386 l -0.08945,2.429903 -0.451681,0.478302 c -0.486045,0.5146 -1.157252,0.74276 -2.624331,0.89153 -1.268124,0.12846 -2.578999,0.5087 -2.951818,0.85605 -0.173937,0.16229 -0.31418,0.48316 -0.31418,0.72077 0,0.23593 -0.04387,0.74611 -0.09685,1.134 -0.09204,0.67053 -0.06844,0.73196 0.474599,1.24416 1.005112,0.94797 6.68576,2.97399 6.68576,2.97399 5.615902,1.69045 16.775405,3.29725 25.215016,4.32239 0,0 1.693546,0.25124 2.278362,0.28091 1.18022,0.0601 5.817739,0.49256 6.531259,0.60914 0.25057,0.0409 2.437807,0.2462 4.860557,0.45685 2.422739,0.21075 5.532774,0.48607 6.911229,0.6121 1.37849,0.12588 4.38611,0.36606 6.68354,0.533 2.29747,0.1668 4.96359,0.37086 5.92434,0.45316 0.96076,0.0823 4.00276,0.28866 6.75968,0.45982 2.75695,0.17092 5.64202,0.37785 6.41151,0.45907 0.76945,0.0811 1.86341,0.14856 2.43064,0.14932 0.56722,0.001 1.62191,0.0991 1.62191,0.0991 l 0.5914,0.0976 19.21603,0.83536 c 0,0 2.11231,-0.0697 12.18354,0.42728 7.6493,0.37766 10.14131,0.21657 10.62521,-0.68751 0.55881,-1.04417 -2.3229,-3.032 -6.49356,-4.4791 -2.36591,-0.82084 -8.49345,-2.39554 -11.33637,-2.91338 -1.25576,-0.22878 -1.78502,-1.2625 -2.52453,-4.93152 -0.96908,-4.80783 -2.37588,-9.605007 -3.94019,-13.436574 -0.59033,-1.445968 -0.62713,-1.632438 -0.76955,-3.873667 -0.5176,-8.14438 -1.73438,-12.959557 -3.81083,-15.084357 -0.77502,-0.793057 -0.89987,-0.858128 -2.63615,-1.383131 -1.00252,-0.303174 -2.66726,-0.828098 -3.6992,-1.166533 l -1.87622,-0.615796 -2.27097,-1.958269 c -8.73542,-7.531954 -19.6655,-11.476392 -31.72262,-11.447997 z m -0.31714,1.372045 c 1.97976,-0.01502 3.92825,0.04253 5.17769,0.181117 9.15947,1.015147 16.59064,3.942064 23.56354,9.27978 1.86489,1.427559 4.08139,3.51056 4.08139,3.835223 0,0.51283 -0.48019,0.291433 -1.78381,-0.821308 -7.07201,-6.03736 -15.34239,-9.621001 -24.94963,-10.809286 -5.93664,-0.734292 -12.568037,-0.221609 -19.607073,1.515461 -5.020154,1.238867 -6.265574,1.7132 -11.599542,4.414789 -2.576776,1.305088 -4.408624,2.449804 -6.752296,4.218887 -2.658344,2.006581 -2.539191,1.939675 -2.705649,1.50585 -0.06881,-0.179573 0.101482,-0.433202 0.575136,-0.857526 1.292358,-1.157933 3.440618,-2.81558 4.633608,-3.575006 0.661552,-0.421092 1.373903,-0.893884 1.582729,-1.050472 0.507725,-0.38055 3.584167,-2.04951 4.252897,-2.307193 0.292273,-0.112726 1.010482,-0.442312 1.595295,-0.732596 1.205526,-0.598363 3.666524,-1.546345 5.468221,-2.106855 0.668316,-0.208116 1.727773,-0.539624 2.354504,-0.736294 1.66424,-0.522259 6.137858,-1.38584 8.74605,-1.68844 1.375714,-0.159664 3.387172,-0.24998 5.36694,-0.266131 z m -0.0546,3.398326 c 8.6205,0 17.05011,2.753672 23.60419,7.711096 1.94761,1.473136 5.56225,5.168663 5.43347,5.555452 -0.12288,0.368532 -0.5343,0.236714 -1.63299,-0.524129 -6.19379,-4.289852 -12.5227,-6.871397 -19.51394,-7.958745 -3.61609,-0.562414 -6.14478,-0.736664 -9.30048,-0.640191 -9.798164,0.299414 -19.977574,3.30726 -27.426115,8.104379 -1.717882,1.10636 -2.178504,0.776468 -0.887836,-0.635754 0.988172,-1.081195 2.84586,-2.712376 4.093958,-3.595704 1.677987,-1.187498 2.632233,-1.804887 3.016134,-1.950873 0.20023,-0.07596 1.002863,-0.514685 1.783805,-0.97433 5.205636,-3.063687 13.499277,-5.090789 20.829804,-5.091201 z m -44.717189,52.14435 c -0.03757,0.001 -0.05901,0.007 -0.06726,0.0147 -0.169805,0.1683 -1.111201,4.51032 -1.391268,6.41668 -0.270106,1.83854 -0.292406,2.35846 -0.106446,2.47352 0.07213,0.0448 0.97729,0.18245 2.012232,0.30605 4.277528,0.5111 9.960449,1.19652 12.667018,1.52802 1.587375,0.1946 3.021156,0.34249 3.186899,0.32897 0.241188,-0.0187 0.338454,-0.2044 0.485685,-0.93441 0.100995,-0.50126 0.328845,-1.66396 0.506385,-2.58293 0.177318,-0.919 0.490919,-2.27221 0.696374,-3.00726 0.205497,-0.73508 0.338879,-1.39174 0.297176,-1.45928 -0.04177,-0.0677 -0.402083,-0.16441 -0.801343,-0.21512 -5.58616,-0.711 -11.181395,-1.63054 -15.308354,-2.51566 -1.023372,-0.2194 -1.924886,-0.36316 -2.177823,-0.35263 z m 75.516419,7.74732 c -0.61786,0.007 -1.0256,0.0443 -1.08521,0.11016 -0.0744,0.0818 -0.21577,0.93465 -0.31419,1.89544 -0.47584,4.64805 -1.92628,8.20899 -4.8258,11.84793 -2.40468,3.01796 -5.27463,5.84076 -12.97085,12.75424 -3.92278,3.52377 -8.87943,8.49377 -10.53356,10.56238 -2.997294,3.74839 -5.549794,8.17519 -6.888314,11.94699 -0.89256,2.51513 -1.653028,5.6962 -2.114243,8.84437 -0.400004,2.73026 -0.403904,2.83796 -0.464989,13.28724 -0.03376,5.794 -0.02584,10.62976 0.01923,10.74645 0.06838,0.17809 1.444867,0.21218 8.583406,0.21218 4.67611,0 8.53374,-0.0515 8.57232,-0.11387 0.0388,-0.0627 0.11258,-2.02748 0.16485,-4.36673 0.11116,-4.98213 0.12561,-5.12265 0.71707,-7.12488 0.8655,-2.92969 3.03936,-6.26306 4.82951,-7.40579 0.71683,-0.4576 1.274,-0.52926 2.13568,-0.27426 0.2919,0.0864 2.27411,0.60383 4.40446,1.14954 6.30272,1.61457 8.61627,1.95447 10.32359,1.51693 4.07353,-1.04392 6.72059,-5.23498 6.31317,-9.99464 -0.16079,-1.87751 0.45013,-2.88032 2.0115,-3.30074 0.52561,-0.14163 0.8324,-0.12746 1.63743,0.0747 0.92115,0.23105 1.01711,0.23052 1.37723,-0.004 0.60561,-0.39682 0.86345,-1.19783 0.78286,-2.43138 -0.0778,-1.19192 -0.43617,-2.0315 -1.16136,-2.72044 -0.25546,-0.24269 -0.43327,-0.49113 -0.3955,-0.55221 0.0379,-0.0612 0.49976,-0.19245 1.02682,-0.292 1.32711,-0.25058 2.83523,-1.01833 3.26083,-1.6611 0.48784,-0.73669 0.43073,-1.25447 -0.33858,-3.05531 -0.37417,-0.87629 -0.68219,-1.77934 -0.68381,-2.00633 -10e-4,-0.26823 0.17547,-0.5901 0.50565,-0.92036 0.93501,-0.93502 2.29087,-1.37404 4.80363,-1.55315 0.87522,-0.0624 1.85082,-0.20446 2.16749,-0.3164 1.45775,-0.51439 2.32902,-1.75443 2.21109,-3.14773 -0.0578,-0.6823 -0.40374,-1.38077 -2.57333,-5.19394 -2.74956,-4.83247 -4.27306,-7.5442 -5.80754,-10.33692 -0.92288,-1.67953 -1.00612,-1.90548 -1.00612,-2.73595 0,-1.19332 0.35655,-1.85955 1.66405,-3.10411 1.17946,-1.12267 1.28507,-1.37715 1.54504,-3.72138 0.17581,-1.58425 -0.0452,-6.71092 -0.3201,-7.43462 -0.15927,-0.41891 -0.60842,-0.46233 -7.11305,-0.68897 -2.48031,-0.0864 -5.29629,-0.22415 -6.25699,-0.30605 -1.56104,-0.13304 -3.17501,-0.19685 -4.20485,-0.18333 z M 102.25298,213.103 c -1.69204,-0.0243 -3.481818,0.17731 -4.684624,0.59066 -4.468536,1.53455 -7.625093,4.67757 -9.035824,8.99738 -2.385315,7.3041 1.735274,15.28604 9.093489,17.61704 1.897187,0.60104 5.834569,0.6815 7.796859,0.15893 6.99874,-1.86282 11.57916,-9.28084 10.03011,-16.2435 -1.14075,-5.1276 -4.63368,-8.94403 -9.75143,-10.65626 -0.87581,-0.29322 -2.13251,-0.44657 -3.44858,-0.46425 z"
       id="path887"
       inkscape:connector-curvature="0" />
  </g>
</svg>
