<?xml version="1.0" encoding="UTF-8" standalone="no"?>
<!-- Created with Inkscape (http://www.inkscape.org/) -->

<svg
   xmlns:dc="http://purl.org/dc/elements/1.1/"
   xmlns:cc="http://creativecommons.org/ns#"
   xmlns:rdf="http://www.w3.org/1999/02/22-rdf-syntax-ns#"
   xmlns:svg="http://www.w3.org/2000/svg"
   xmlns="http://www.w3.org/2000/svg"
   xmlns:sodipodi="http://sodipodi.sourceforge.net/DTD/sodipodi-0.dtd"
   xmlns:inkscape="http://www.inkscape.org/namespaces/inkscape"
   width="210mm"
   height="297mm"
   viewBox="0 0 210 297"
   version="1.1"
   id="svg8"
   inkscape:version="0.92.4 (5da689c313, 2019-01-14)"
   sodipodi:docname="Sthapatya black.svg">
  <defs
     id="defs2">
    <pattern
       y="0"
       x="0"
       height="6"
       width="6"
       patternUnits="userSpaceOnUse"
       id="EMFhbasepattern" />
  </defs>
  <sodipodi:namedview
     id="base"
     pagecolor="#ffffff"
     bordercolor="#666666"
     borderopacity="1.0"
     inkscape:pageopacity="0.0"
     inkscape:pageshadow="2"
     inkscape:zoom="0.7"
     inkscape:cx="419.16907"
     inkscape:cy="549.2249"
     inkscape:document-units="mm"
     inkscape:current-layer="layer1"
     showgrid="false"
     inkscape:window-width="1366"
     inkscape:window-height="706"
     inkscape:window-x="-8"
     inkscape:window-y="-8"
     inkscape:window-maximized="1" />
  <metadata
     id="metadata5">
    <rdf:RDF>
      <cc:Work
         rdf:about="">
        <dc:format>image/svg+xml</dc:format>
        <dc:type
           rdf:resource="http://purl.org/dc/dcmitype/StillImage" />
        <dc:title></dc:title>
      </cc:Work>
    </rdf:RDF>
  </metadata>
  <g
     inkscape:label="Layer 1"
     inkscape:groupmode="layer"
     id="layer1">
    <text
       id="text1440"
       y="141.19307"
       x="198.19765"
       style="font-style:normal;font-weight:normal;font-size:18.45483971px;line-height:1.25;font-family:sans-serif;letter-spacing:0px;word-spacing:0px;fill:#000000;fill-opacity:1;stroke:none;stroke-width:0.46137103"
       xml:space="preserve"><tspan
         id="tspan1436"
         style="font-style:normal;font-variant:normal;font-weight:500;font-stretch:normal;font-size:27.68225861px;line-height:0.80000001;font-family:'LEMON MILK';-inkscape-font-specification:'LEMON MILK Medium';text-align:end;text-anchor:end;fill:#000000;stroke-width:0.46137103"
         y="141.19307"
         x="198.19765"
         sodipodi:role="line">STHAPATYA'21</tspan><tspan
         id="tspan1438"
         style="font-style:normal;font-variant:normal;font-weight:500;font-stretch:normal;font-size:12.30322742px;line-height:0.80000001;font-family:'LEMON MILK';-inkscape-font-specification:'LEMON MILK Medium';text-align:end;text-anchor:end;fill:#000000;stroke-width:0.46137103"
         y="164.26161"
         x="198.19765"
         sodipodi:role="line" /></text>
    <rect
       y="148.2916"
       x="94.388123"
       height="24.944885"
       width="74.328156"
       id="rect1442"
       style="opacity:1;fill:#000000;fill-opacity:1;fill-rule:nonzero;stroke:none;stroke-width:1.42176187;stroke-linecap:square;stroke-linejoin:miter;stroke-miterlimit:4;stroke-dasharray:none;stroke-dashoffset:0;stroke-opacity:1;paint-order:fill markers stroke" />
    <g
       transform="matrix(1.2169138,0,0,1.2169138,374.02144,103.8588)"
       id="g1450">
      <path
         style="fill:#d77f0c;fill-opacity:1;stroke-width:0.00612647"
         d="m -216.11829,38.499264 c -0.13659,-1.8e-5 -0.26513,0.0064 -0.21134,0.01054 0.0148,0.0011 0.0117,0.0029 -0.0153,0.0089 -0.0347,0.0077 -0.0748,0.02616 -0.10655,0.04898 -0.01,0.0071 -0.94424,1.055058 -2.07629,2.328751 -1.13206,1.273692 -2.06467,2.322507 -2.07249,2.330681 -0.0109,0.01141 -0.0168,0.01356 -0.0257,0.0092 -0.006,-0.0031 -0.36935,-0.366162 -0.80664,-0.806735 -0.76003,-0.765673 -0.79704,-0.802006 -0.83884,-0.822501 -0.0241,-0.01178 -0.0586,-0.02419 -0.0767,-0.02755 -0.0422,-0.0078 -0.37192,-0.0078 -0.44643,7.9e-5 -0.21263,0.0224 -0.40089,0.109458 -0.54583,0.252413 -0.1626,0.160363 -0.25152,0.351179 -0.27134,0.582396 -0.008,0.09063 -0.002,0.139275 0.0278,0.197471 0.023,0.04649 -0.27372,-0.25866 4.19094,4.309936 0.63716,0.652008 1.81715,1.859537 2.62221,2.683393 0.80506,0.823857 1.73267,1.77311 2.06132,2.10944 0.32867,0.336337 0.59998,0.615732 0.60284,0.620892 0.0119,0.021 -0.007,0.0229 -0.0617,0.0064 -0.0296,-0.0089 -0.0712,-0.01935 -0.0924,-0.02333 l -0.0387,-0.0072 -1.01528,-1.045225 c -0.55839,-0.574871 -2.88411,-2.969553 -5.16826,-5.321505 -2.2841,-2.351951 -4.167,-4.288277 -4.18415,-4.302937 -0.0398,-0.03397 -0.0816,-0.05345 -0.13398,-0.06246 -0.0638,-0.01099 -0.44454,-0.0044 -0.51458,0.0089 -0.41521,0.07886 -0.70945,0.402368 -0.74645,0.820614 -0.009,0.107919 -0.004,0.459326 0.009,0.53084 0.033,0.188455 0.0999,0.341286 0.21378,0.488849 0.028,0.03627 0.54784,0.578878 1.33329,1.391667 0.70805,0.732708 1.2874,1.336597 1.2874,1.34196 0,0.0054 -0.6904,0.786673 -1.53423,1.736256 -1.27742,1.43751 -1.53402,1.729229 -1.53314,1.742731 0.002,0.01447 -0.005,0.01917 -0.0515,0.04376 -0.33606,0.176439 -0.56598,0.494425 -0.63097,0.872533 -0.082,0.476608 0.13772,0.963459 0.55176,1.222913 0.15467,0.0969 0.32468,0.155531 0.51465,0.177522 0.0415,0.0048 0.57381,0.0061 1.8502,0.0046 1.97475,-0.0024 1.80085,9.77e-4 1.95555,-0.03849 0.33283,-0.08513 0.61473,-0.312725 0.77596,-0.626599 0.0175,-0.03403 0.0344,-0.06351 0.0376,-0.06551 0.003,-0.002 0.0113,-9.77e-4 0.0181,0.0028 0.0108,0.0058 0.0801,-0.07216 0.70209,-0.791572 0.37949,-0.438921 0.69482,-0.798886 0.70082,-0.799896 0.008,-0.0013 0.73534,0.748594 2.39341,2.465934 1.31046,1.357254 2.41741,2.50165 2.45999,2.543111 0.0426,0.04146 0.10294,0.09566 0.13418,0.120453 0.16343,0.129759 0.39017,0.223703 0.59712,0.247384 h 6e-5 c 0.0282,0.0032 0.49407,0.0052 1.09047,0.0048 l 1.04149,-6.98e-4 0.0678,-0.0136 c 0.25789,-0.05166 0.46127,-0.158985 0.64036,-0.337997 0.16814,-0.168044 0.27627,-0.363327 0.32638,-0.589396 0.0276,-0.124173 0.0294,-0.165114 0.0269,-0.599692 -0.002,-0.385242 -0.003,-0.410409 -0.0149,-0.462546 -0.0515,-0.224259 -0.17204,-0.41126 -0.35272,-0.547169 -0.0363,-0.02732 -0.13438,-0.121136 -0.27415,-0.262302 -0.11972,-0.120878 -1.41135,-1.422843 -2.87029,-2.893294 -1.62883,-1.641664 -2.65335,-2.678703 -2.65447,-2.686853 -0.002,-0.01009 0.69397,-0.817954 2.89478,-3.363401 1.59313,-1.842589 2.90699,-3.365422 2.91969,-3.384034 0.0126,-0.01861 0.029,-0.05307 0.0361,-0.07662 0.0119,-0.03855 0.0126,-0.05227 0.009,-0.138348 -0.009,-0.240053 -0.0848,-0.459342 -0.22799,-0.659215 -0.18805,-0.262588 -0.50424,-0.450659 -0.81784,-0.48652 -0.032,-0.0036 -0.0664,-0.0077 -0.0765,-0.0088 -0.0159,-0.0019 -0.0151,-0.0024 0.006,-0.0041 0.0429,-0.0035 -0.0858,-0.0091 -0.14527,-0.0064 -0.0456,0.0021 -0.052,0.0034 -0.0324,0.0067 l 0.0245,0.0042 -0.0276,9.78e-4 c -0.0981,0.0035 -0.25308,0.03912 -0.35271,0.08108 -0.0335,0.0141 -0.0697,0.02574 -0.0805,0.02582 -0.0108,9.5e-5 -0.021,0.0035 -0.0226,0.0076 -0.002,0.0041 -0.0272,0.02195 -0.0569,0.03973 -0.23511,0.140614 -0.41074,0.338455 -0.50793,0.572263 -0.0162,0.03914 -0.0447,0.07297 -0.34452,0.410468 -0.17974,0.202299 -0.33247,0.372683 -0.33932,0.378612 -0.0117,0.01002 -0.0338,0.01069 -0.31645,0.0092 -0.28005,-0.0015 -0.30409,-0.0024 -0.30596,-0.01199 -0.002,-0.0057 0.008,-0.03605 0.0194,-0.06741 0.0462,-0.123522 0.0656,-0.233374 0.0656,-0.375559 0,-0.299801 -0.10787,-0.569697 -0.30984,-0.771865 -0.10172,-0.101786 -0.2104,-0.174085 -0.34133,-0.227112 -0.0752,-0.03045 -0.19362,-0.06138 -0.26516,-0.06925 -0.0365,-0.004 -0.0427,-0.0058 -0.0245,-0.0072 0.0544,-0.004 -0.10119,-0.01071 -0.24816,-0.01075 z m -0.0224,0.597722 0.12611,0.0028 c 0.10881,0.0024 0.13193,0.0047 0.16896,0.0166 0.0786,0.02521 0.13639,0.05973 0.19086,0.113936 0.0437,0.04351 0.0542,0.05842 0.0838,0.119649 0.0462,0.09573 0.0558,0.136873 0.0558,0.235396 -1.1e-4,0.06398 -0.003,0.08918 -0.0138,0.128217 -0.0194,0.068 -0.0622,0.147651 -0.10794,0.200528 -0.0214,0.02472 -0.93524,0.997461 -2.03085,2.161643 -1.09559,1.164184 -1.99654,2.117687 -2.00207,2.118891 -0.0138,0.003 -0.52133,-0.511983 -0.5221,-0.529429 0,-0.0083 0.67595,-0.773525 1.99768,-2.260705 1.09887,-1.236415 2.01053,-2.261414 2.02585,-2.277789 z m 3.53374,0.0023 c 0.28269,-0.0045 0.54111,0.188508 0.6126,0.471237 0.0103,0.04137 0.0113,0.0508 0.004,0.05952 -0.005,0.0057 -1.28416,1.486012 -2.84373,3.289605 h -6e-5 c -1.78388,2.063028 -2.83953,3.279262 -2.84637,3.279262 -0.0153,0 -0.73547,-0.725552 -0.73547,-0.741098 0,-0.0075 1.03479,-1.176357 2.69415,-3.043344 1.48182,-1.667185 2.74358,-3.087034 2.80395,-3.155194 0.12298,-0.138827 0.11766,-0.135199 0.22234,-0.152186 0.0296,-0.0048 0.059,-0.0074 0.0883,-0.0078 z m -2.89075,1.530541 0.27625,0.0016 c 0.24213,0.0015 0.27646,0.0027 0.27803,0.01093 0.002,0.0053 -0.83454,0.950257 -1.94353,2.197881 -1.30854,1.472064 -1.94918,2.188511 -1.95708,2.188511 -0.0131,0 -0.40488,-0.395311 -0.40488,-0.408497 0,-0.0064 3.51453,-3.746769 3.69908,-3.936792 z m -7.0258,1.531386 0.10112,0.103322 c 0.0556,0.05683 2.33414,2.353832 5.0635,5.104445 3.16049,3.185118 4.96316,5.006047 4.96432,5.014758 0.002,0.01135 -0.006,0.0185 -0.0468,0.04179 -0.14209,0.08196 -0.23693,0.180298 -0.34715,0.359953 -0.0153,0.02475 -0.0223,0.02723 -0.0383,0.01333 -0.007,-0.006 -0.50125,-0.511313 -1.09853,-1.122889 -0.59727,-0.611574 -2.8837,-2.951579 -5.08098,-5.200042 -2.79477,-2.859943 -3.99561,-4.09265 -3.99693,-4.103174 -0.006,-0.0436 0.0791,-0.141337 0.15292,-0.176359 0.0627,-0.02976 0.0942,-0.03476 0.21846,-0.03499 z m -2.56315,4.19e-4 h 0.10844 l 4.99976,5.146754 c 3.54438,3.648633 4.99967,5.150633 4.99967,5.160029 -4e-5,0.0084 -0.008,0.01888 -0.0226,0.02855 -0.0395,0.02687 -0.1323,0.124259 -0.17253,0.180984 -0.0489,0.069 -0.11214,0.197222 -0.13271,0.269299 -0.0275,0.09614 -0.0347,0.156302 -0.0389,0.324641 h 4e-5 c -0.003,0.134701 -0.005,0.159502 -0.0133,0.160991 -0.006,9.77e-4 -1.9646,-2.023302 -4.86439,-5.02634 -2.67038,-2.765448 -4.91737,-5.091655 -4.99334,-5.169356 -0.15448,-0.158008 -0.18162,-0.190021 -0.21148,-0.249313 -0.044,-0.08728 -0.0473,-0.108906 -0.0502,-0.326006 -0.002,-0.130516 0,-0.20862 0.004,-0.23588 0.0212,-0.122933 0.11618,-0.223044 0.24193,-0.255063 0.0259,-0.0066 0.0681,-0.0093 0.14498,-0.0093 z m 2.28503,4.434168 c 0.002,-4.18e-4 0.002,0.0013 0.002,0.0013 0.0113,0 0.43447,0.438553 0.4369,0.452775 0.002,0.0074 -0.41783,0.457124 -1.29699,1.391871 -0.71436,0.759517 -1.30417,1.384505 -1.31063,1.388852 -0.0106,0.007 -0.0175,0.0036 -0.0638,-0.03173 -0.10969,-0.08368 -0.21445,-0.140852 -0.33852,-0.184724 -0.0623,-0.02202 -0.0735,-0.02797 -0.0735,-0.03885 0,-0.0084 0.43458,-0.501638 1.25691,-1.42658 1.29052,-1.451594 1.37824,-1.55085 1.3873,-1.552982 z m 0.85736,0.892039 c 0.0117,6.98e-4 0.0347,0.02258 0.1226,0.112692 0.28993,0.297328 0.36115,0.374037 0.35712,0.384566 -0.002,0.0057 -0.33006,0.377119 -0.72858,0.825355 -0.59289,0.666905 -0.72439,0.817859 -0.72352,0.830827 0.002,0.01401 -0.005,0.01895 -0.051,0.04275 -0.36735,0.189898 -0.60555,0.547373 -0.64361,0.9658 -0.0196,0.215696 0.0273,0.448434 0.13048,0.647511 0.0175,0.03373 0.0292,0.06349 0.0271,0.06893 -0.003,0.0086 -0.0682,0.0096 -0.63507,0.0096 -0.50872,0 -0.63202,-0.0015 -0.63445,-0.0079 -0.002,-0.0043 0.0146,-0.0427 0.036,-0.08526 0.13847,-0.274225 0.16363,-0.587922 0.0704,-0.879973 -0.0102,-0.03146 -0.0168,-0.06087 -0.0152,-0.06535 0.005,-0.01308 2.66966,-2.842036 2.68313,-2.848612 0.002,-6.98e-4 0.003,-9.77e-4 0.004,-9.77e-4 z m 0.89846,0.929242 c 0.0177,-5.59e-4 0.76912,0.774733 0.7664,0.790685 -0.002,0.0058 -0.21902,0.261657 -0.48451,0.568565 -0.2655,0.306905 -0.4864,0.557985 -0.49091,0.557985 -0.0117,0 -0.0191,-0.01069 -0.0341,-0.04902 -0.007,-0.01853 -0.0265,-0.05866 -0.0427,-0.08921 -0.14755,-0.27734 -0.38347,-0.480796 -0.67729,-0.584127 -0.0566,-0.01991 -0.0674,-0.02576 -0.0674,-0.03648 0,-0.0194 1.01281,-1.157939 1.03046,-1.158403 z m -1.37558,1.711602 c 0.0269,-9.78e-4 0.0536,4.18e-4 0.0795,0.0033 0.32607,0.0379 0.56275,0.299594 0.56275,0.622896 0,0.165729 -0.0716,0.333452 -0.19137,0.447145 -0.0786,0.07462 -0.15923,0.121026 -0.26632,0.153192 -0.0462,0.01386 -0.0673,0.01644 -0.14875,0.01806 -0.0523,9.78e-4 -0.10048,6.98e-4 -0.10724,-9.77e-4 -0.007,-0.0016 -0.0315,-0.0072 -0.0551,-0.01254 -0.1953,-0.04409 -0.36406,-0.191955 -0.43783,-0.383681 -0.0308,-0.07995 -0.0401,-0.133735 -0.0393,-0.22816 0,-0.07162 0.003,-0.09588 0.0168,-0.147036 0.0494,-0.187264 0.17384,-0.335794 0.34946,-0.416941 0.0729,-0.03367 0.15655,-0.05282 0.23746,-0.05522 z m -3.34871,1.22e-4 c 0.0541,1.25e-4 0.10887,0.0074 0.16319,0.02228 0.0602,0.01644 0.15804,0.06485 0.20832,0.10304 0.14966,0.113645 0.23847,0.280696 0.24813,0.466814 0.0152,0.291127 -0.16968,0.548874 -0.45465,0.633915 -0.0475,0.01418 -0.0683,0.01671 -0.15012,0.01834 -0.10444,0.0021 -0.13728,-0.002 -0.20731,-0.02546 -0.10145,-0.03401 -0.17363,-0.07806 -0.24927,-0.152183 -0.19014,-0.186369 -0.23951,-0.477417 -0.12155,-0.716567 0.10819,-0.219377 0.3289,-0.350995 0.56326,-0.350181 z m 11.33787,2.755747 c 0.0694,0.0022 0.15111,0.03388 0.20529,0.08128 0.0872,0.07627 0.12805,0.213079 0.0961,0.321826 -0.0324,0.110141 -0.11576,0.19254 -0.22661,0.223895 -0.029,0.0082 -0.0699,0.01058 -0.20471,0.01205 -0.0926,9.77e-4 -0.17328,5.58e-4 -0.1792,-0.0013 -0.006,-0.0016 -0.0123,-0.0096 -0.0142,-0.01761 -0.002,-0.008 -0.003,-0.09254 -0.002,-0.187938 0.003,-0.186396 0.004,-0.195323 0.0412,-0.268056 0.0427,-0.0837 0.15058,-0.152893 0.25446,-0.163243 0.009,-6.98e-4 0.0189,-0.0011 0.0288,-6.98e-4 z m 2.44833,1.22e-4 c 0.0199,1.24e-4 0.0396,0.0024 0.0588,0.0069 0.12233,0.02874 0.2151,0.115975 0.24573,0.231014 0.007,0.02496 0.009,0.0767 0.009,0.214444 l 4e-5,0.181545 -0.0138,0.0037 v -4.2e-5 c -0.0146,0.0039 -0.29094,0.0039 -0.31705,-8.1e-5 -0.0908,-0.01365 -0.14649,-0.03659 -0.1972,-0.08132 -0.13046,-0.115139 -0.14128,-0.320573 -0.0237,-0.449319 0.0628,-0.06863 0.15205,-0.10757 0.23822,-0.106859 z m -1.58894,0.0043 c 0.0124,0 -0.008,-0.02008 0.47159,0.471759 0.2348,0.240923 0.44811,0.45826 0.47398,0.482979 0.11128,0.106312 0.23078,0.180176 0.3564,0.220275 0.11318,0.03611 0.13745,0.03938 0.31247,0.04199 0.18627,0.0028 0.20216,0.0043 0.20216,0.01978 0,0.03152 -0.10689,0.15155 -0.17951,0.201615 -0.0745,0.05135 -0.13728,0.0784 -0.24016,0.103442 -0.0394,0.0096 -0.12197,0.01051 -1.00163,0.01162 -0.52733,9.78e-4 -0.98081,-9.77e-4 -1.00778,-0.0038 -0.11279,-0.01159 -0.22844,-0.05533 -0.31504,-0.119166 -0.0754,-0.05561 -0.16589,-0.160184 -0.16589,-0.19176 0,-0.0066 0.004,-0.01375 0.01,-0.0158 0.005,-0.002 0.0749,-0.0038 0.15467,-0.0038 0.1503,-1.09e-4 0.2036,-0.0055 0.29815,-0.02988 0.48025,-0.123987 0.77471,-0.637422 0.63735,-1.111347 -0.0179,-0.06155 -0.0192,-0.07786 -0.006,-0.07786 z"
         id="path1444"
         inkscape:connector-curvature="0" />
      <path
         style="fill:#d77f0c;fill-opacity:1;stroke-width:0.01098994"
         d="m -201.11481,39.967749 c -0.3079,-0.01513 -0.54573,0.229518 -0.52369,0.555879 0.0133,0.19573 0.10485,0.330004 0.2639,0.38677 0.0464,0.01664 0.0821,0.01979 0.19018,0.01695 0.12486,-0.0033 0.13754,-0.0057 0.2069,-0.0399 0.13215,-0.06506 0.23021,-0.188323 0.26405,-0.331868 0.0427,-0.181255 -4e-5,-0.357744 -0.11442,-0.472116 -0.0656,-0.06556 -0.12135,-0.09268 -0.2245,-0.109157 -0.0211,-0.0034 -0.0419,-0.0056 -0.0624,-0.0066 z m -3.23549,0.388719 c -0.14191,-1.07e-4 -0.28302,0.0039 -0.35755,0.01191 -0.4183,0.04506 -0.76901,0.154741 -1.09546,0.342546 -0.44633,0.256778 -0.76919,0.603169 -0.99812,1.070993 -0.16062,0.328153 -0.24547,0.643796 -0.27927,1.038528 -0.007,0.08448 -0.01,0.09388 -0.0126,0.04942 -0.007,-0.09992 -0.016,0.216978 -0.0109,0.362672 0.004,0.108183 0.007,0.129559 0.012,0.08795 l 0.007,-0.05498 0.002,0.06046 c 0.003,0.08614 0.0215,0.239545 0.0463,0.373639 0.0976,0.52859 0.34751,0.986712 0.70479,1.291904 0.36101,0.308394 0.78171,0.474714 1.31673,0.520525 h 7e-5 c 0.51242,0.04387 1.12811,-0.04154 1.75124,-0.242983 0.18582,-0.06007 0.18678,-0.06144 0.21024,-0.289085 0.0292,-0.283144 0.11082,-0.85387 0.1595,-1.115437 0.005,-0.02719 0.008,-0.05071 0.006,-0.0523 -0.007,-0.0066 -0.49414,0.04132 -0.50113,0.0492 -0.004,0.0047 -0.0162,0.04571 -0.0268,0.09105 -0.0308,0.131337 -0.0899,0.302479 -0.14342,0.415411 -0.16881,0.356372 -0.41027,0.556076 -0.76359,0.631558 -0.21508,0.04595 -0.53689,0.02492 -0.75137,-0.04913 -0.54453,-0.187994 -0.93868,-0.715094 -1.07181,-1.433452 -0.0867,-0.467941 -0.0783,-1.033409 0.0212,-1.423063 0.12107,-0.474219 0.39788,-0.854855 0.75242,-1.034416 0.23006,-0.116534 0.41851,-0.156035 0.74185,-0.155617 0.23657,2.79e-4 0.35179,0.01409 0.51094,0.06096 0.26462,0.07794 0.44564,0.257133 0.49506,0.490299 0.017,0.08027 0.0207,0.340718 0.007,0.466996 -0.005,0.0408 -0.006,0.07431 -0.002,0.07431 0.0266,2.79e-4 0.49032,-0.03612 0.49312,-0.03867 0.002,-0.0018 0.0106,-0.08409 0.0191,-0.182888 0.0302,-0.347493 0.088,-0.739576 0.15497,-1.050865 0.0405,-0.188257 0.0515,-0.17594 -0.19776,-0.225742 -0.21462,-0.04289 -0.64063,-0.108616 -0.83709,-0.129212 -0.0777,-0.0082 -0.22033,-0.01237 -0.36224,-0.01248 z m 6.09923,1.429267 -0.13167,0.02886 c -0.0724,0.0159 -0.19586,0.04314 -0.27444,0.06053 -0.21242,0.047 -0.36071,0.07564 -0.59622,0.115145 -0.11647,0.01954 -0.21423,0.03804 -0.2173,0.04105 -0.0113,0.01131 -0.0336,0.28372 -0.0245,0.299907 0.007,0.01277 0.0299,0.01674 0.0962,0.01674 0.23119,0 0.33594,0.0797 0.37841,0.288005 0.0245,0.123436 0.0251,2.064924 0,2.17135 -0.0399,0.168976 -0.11807,0.243962 -0.29891,0.286634 -0.0465,0.01097 -0.0883,0.02689 -0.0929,0.03542 -0.005,0.0085 -0.0177,0.08847 -0.0289,0.177621 l -0.0205,0.162108 0.0283,-1.39e-4 c 0.0156,-8.8e-5 0.13221,-0.0078 0.25916,-0.0171 0.24267,-0.01783 0.88156,-0.02311 1.14379,-0.0095 l 0.14371,0.0075 0.0247,-0.141475 c 0.0135,-0.07779 0.0275,-0.165266 0.0309,-0.194432 l 0.006,-0.05303 -0.13194,0.0077 c -0.17115,0.01001 -0.22979,-0.003 -0.29451,-0.06529 -0.0667,-0.06419 -0.0836,-0.126333 -0.0903,-0.331073 -0.009,-0.270453 0.0641,-1.876249 0.0865,-1.90319 0.0223,-0.02688 0.21786,-0.152285 0.32812,-0.210448 0.19506,-0.10288 0.35773,-0.147295 0.53604,-0.146597 0.35043,0.0014 0.56842,0.242299 0.59288,0.655077 0.008,0.134463 -0.0169,1.501543 -0.0297,1.638128 -0.0167,0.176486 -0.0721,0.274885 -0.20223,0.358994 -0.036,0.02324 -0.0941,0.05276 -0.12921,0.06558 -0.0564,0.02056 -0.0646,0.02735 -0.0695,0.05765 -0.007,0.04132 -0.0279,0.265998 -0.0279,0.295001 h 0.001 c 0,0.01759 0.006,0.01957 0.0413,0.014 0.0804,-0.0127 0.10886,-0.01623 0.26534,-0.03333 0.2561,-0.02798 0.47777,-0.03457 0.87483,-0.02597 0.20549,0.0045 0.37405,0.0073 0.37545,0.0063 0.004,-0.0045 0.0587,-0.324857 0.0587,-0.346082 0,-0.02319 -0.003,-0.02352 -0.16212,-0.02099 -0.14857,0.0023 -0.16581,5.58e-4 -0.20705,-0.02157 -0.0968,-0.05179 -0.14771,-0.152027 -0.16362,-0.322128 -0.0112,-0.11853 0.0256,-0.693084 0.0892,-1.395647 0.0345,-0.382151 0.0387,-0.679876 0.0112,-0.800668 -0.0656,-0.287317 -0.22405,-0.489225 -0.48763,-0.621169 -0.15984,-0.08001 -0.38102,-0.123532 -0.58242,-0.114566 -0.0902,0.004 -0.12132,0.01054 -0.19213,0.04047 -0.1657,0.07005 -0.56501,0.316019 -0.7928,0.488352 -0.14368,0.108738 -0.16906,0.0997 -0.15648,-0.05591 0.006,-0.0789 0.0394,-0.278856 0.0677,-0.40964 0.004,-0.01815 -0.001,-0.03679 -0.0142,-0.0531 z m 13.10841,0 -0.24054,0.05144 c -0.25499,0.05448 -0.66571,0.134855 -0.83956,0.164348 -0.0574,0.0097 -0.11244,0.02006 -0.12207,0.02294 -0.0141,0.0042 -0.0204,0.03494 -0.0314,0.152586 -0.007,0.08101 -0.0109,0.151984 -0.007,0.157709 0.003,0.0057 0.0597,0.01268 0.12481,0.01544 0.21531,0.0091 0.30056,0.07321 0.35104,0.263978 0.0161,0.06116 0.0188,0.177808 0.0227,1.022947 0.004,0.970568 -1e-5,1.124704 -0.036,1.229713 -0.0387,0.112766 -0.14746,0.190896 -0.30344,0.217879 -0.0842,0.01456 -0.0728,-0.0093 -0.10411,0.216868 -0.0102,0.07408 -0.0167,0.13668 -0.0141,0.139096 0.003,0.0024 0.18752,8.38e-4 0.41116,-0.0036 0.22364,-0.0045 0.57228,-0.0043 0.77477,2.8e-4 0.20249,0.0046 0.37131,0.005 0.37509,8.37e-4 0.004,-0.0041 0.0203,-0.07923 0.0367,-0.166871 0.0164,-0.08765 0.0325,-0.170873 0.0357,-0.184909 l 0.006,-0.02547 -0.14148,0.0076 c -0.21192,0.01135 -0.28858,-0.01823 -0.34024,-0.131232 -0.0442,-0.09522 -0.0522,-0.193294 -0.0441,-0.49571 0.0159,-0.597499 0.059,-1.585541 0.0714,-1.637406 0.006,-0.02638 0.0327,-0.04957 0.13361,-0.117451 0.19867,-0.133684 0.40986,-0.230461 0.57362,-0.262825 0.0987,-0.0195 0.26819,-0.01403 0.34969,0.01125 0.19928,0.06183 0.32283,0.208754 0.38691,0.460069 0.0238,0.09316 0.0243,0.109389 0.0213,0.60674 -0.005,0.749011 -0.0193,1.245962 -0.0387,1.314918 -0.0237,0.08392 -0.0727,0.166558 -0.12265,0.207129 -0.0477,0.03872 -0.15098,0.09325 -0.21723,0.114711 -0.0226,0.0073 -0.043,0.01668 -0.0455,0.02078 -0.003,0.0041 -0.0101,0.0717 -0.0171,0.150279 -0.007,0.07853 -0.015,0.154432 -0.0181,0.168672 -0.005,0.02422 -0.003,0.02535 0.0361,0.01919 0.0769,-0.01208 0.30426,-0.03914 0.43185,-0.05137 0.13687,-0.01312 0.73687,-0.01543 0.95101,-0.0037 l 0.13225,0.0072 0.03,-0.168961 c 0.0166,-0.09292 0.03,-0.177497 0.0299,-0.18801 0,-0.01732 -0.0144,-0.01892 -0.15685,-0.01652 -0.14331,0.0024 -0.16045,5.58e-4 -0.20193,-0.02157 -0.10369,-0.05547 -0.14729,-0.153793 -0.15483,-0.34947 -0.005,-0.12081 0.0771,-1.867113 0.0903,-1.924688 0.006,-0.02847 0.17633,-0.144852 0.32437,-0.222279 0.19688,-0.102951 0.35575,-0.146295 0.5354,-0.145878 0.29411,5.59e-4 0.4874,0.161469 0.56647,0.47154 0.0242,0.09488 0.0245,0.103269 0.0211,0.782777 -0.004,0.875789 -0.0126,1.089131 -0.0466,1.190537 -0.0435,0.129765 -0.12727,0.201329 -0.28086,0.239955 -0.0296,0.0074 -0.0583,0.01728 -0.0638,0.02186 -0.009,0.0075 -0.0552,0.339554 -0.048,0.344206 0.002,9.77e-4 0.0944,-0.0047 0.20626,-0.0127 0.21839,-0.01565 0.95631,-0.02079 1.19356,-0.0083 l 0.14407,0.0076 0.0349,-0.183176 c 0.0192,-0.100738 0.0326,-0.186864 0.0298,-0.191402 -0.003,-0.0045 -0.0512,-0.0042 -0.10748,6.98e-4 -0.37122,0.03218 -0.44724,-0.08451 -0.41693,-0.64 0.0152,-0.277622 0.0542,-0.804386 0.0896,-1.208864 0.0321,-0.367187 0.0268,-0.620247 -0.0162,-0.7638 -0.0752,-0.250989 -0.23207,-0.433534 -0.47261,-0.549747 -0.16984,-0.08205 -0.37898,-0.12224 -0.58618,-0.112762 -0.0902,0.0041 -0.12139,0.01089 -0.20099,0.04358 -0.1694,0.06956 -0.53221,0.293621 -0.79505,0.491019 -0.066,0.04955 -0.12518,0.08835 -0.13159,0.08621 -0.006,-0.0021 -0.0365,-0.05203 -0.0669,-0.110814 -0.0304,-0.05879 -0.0768,-0.134203 -0.10324,-0.167595 -0.17235,-0.218046 -0.48221,-0.345054 -0.84026,-0.344637 -0.13829,1.4e-4 -0.23256,0.02994 -0.4165,0.131448 -0.11241,0.06204 -0.50412,0.317533 -0.65869,0.429626 -0.0531,0.03851 -0.0655,0.04327 -0.0851,0.03275 -0.0189,-0.01012 -0.0227,-0.02251 -0.0227,-0.06962 0,-0.05154 0.0295,-0.2365 0.0668,-0.423132 0.013,-0.06489 0.0124,-0.07049 -0.009,-0.09155 z m 11.00327,0.0095 7e-5,7.1e-5 c -0.0297,9.4e-5 -0.0943,0.01415 -0.2644,0.05137 -0.35611,0.07791 -0.47115,0.100652 -0.72743,0.143642 -0.11648,0.01954 -0.21387,0.03757 -0.21637,0.04011 -0.009,0.0085 -0.0317,0.281667 -0.0252,0.298248 0.005,0.01266 0.0335,0.01751 0.12661,0.02135 0.10289,0.0042 0.12933,0.0094 0.18202,0.03514 0.0771,0.03774 0.12181,0.09098 0.1531,0.182598 l 0.0244,0.07142 0.003,1.044084 c 0.003,1.089207 0.002,1.12362 -0.0435,1.220911 -0.0459,0.09771 -0.1467,0.167213 -0.27962,0.192844 -0.0357,0.0069 -0.0695,0.01677 -0.0752,0.02193 -0.006,0.0052 -0.0209,0.08608 -0.0338,0.179785 l -0.0233,0.170335 0.0282,-1.39e-4 c 0.0155,-8.5e-5 0.13207,-0.0078 0.25901,-0.0171 0.24345,-0.01788 0.88186,-0.02306 1.14572,-0.0093 0.0874,0.0046 0.14559,0.0035 0.14559,-0.0026 0,-0.01162 0.0524,-0.314779 0.0611,-0.353583 l 0.006,-0.02561 -0.1365,0.0078 c -0.176,0.01002 -0.23358,-0.0025 -0.29861,-0.06515 -0.0667,-0.06421 -0.0836,-0.126265 -0.0902,-0.331001 -0.009,-0.271266 0.0646,-1.876797 0.087,-1.903839 0.007,-0.0084 0.0601,-0.04663 0.11795,-0.08499 0.30725,-0.203581 0.58371,-0.294307 0.81971,-0.268885 0.30664,0.03303 0.4963,0.271561 0.51887,0.652553 0.008,0.134082 -0.0169,1.501008 -0.0298,1.638128 -0.0166,0.176419 -0.072,0.274871 -0.20217,0.358994 -0.0359,0.02324 -0.0942,0.05279 -0.1295,0.06565 -0.0353,0.01286 -0.0642,0.02643 -0.0643,0.03016 -1.3e-4,0.0037 -0.007,0.07105 -0.0164,0.14963 -0.009,0.07849 -0.0161,0.154276 -0.0162,0.168675 v 7e-5 7.4e-5 c -8e-5,0.02314 0.004,0.02518 0.0357,0.01926 0.098,-0.01812 0.43623,-0.05236 0.59398,-0.0601 0.098,-0.0047 0.34618,-0.005 0.55169,-5.58e-4 0.20549,0.0045 0.37404,0.0072 0.37545,0.0062 0.005,-0.0051 0.0672,-0.365241 0.064,-0.370394 -0.002,-0.0033 -0.0523,-0.0018 -0.11167,0.0033 -0.18092,0.01555 -0.25504,-6.98e-4 -0.3305,-0.07229 -0.0794,-0.07526 -0.10741,-0.245968 -0.09,-0.546067 0.0164,-0.28245 0.0407,-0.607502 0.078,-1.044084 0.043,-0.503436 0.0462,-0.751916 0.0115,-0.892507 -0.0431,-0.174873 -0.10818,-0.299835 -0.2147,-0.41267 -0.19479,-0.206317 -0.51667,-0.322974 -0.85039,-0.308132 -0.0902,0.004 -0.12132,0.01061 -0.19213,0.04055 -0.1657,0.07005 -0.56501,0.316017 -0.79279,0.48835 -0.0534,0.04037 -0.10667,0.07337 -0.11839,0.07337 -0.012,0 -0.0267,-0.0118 -0.0335,-0.02677 -0.0159,-0.03496 0.002,-0.208957 0.0416,-0.403074 0.029,-0.142284 0.0291,-0.143468 0.008,-0.164852 -0.008,-0.008 -0.0133,-0.01297 -0.0312,-0.01291 z m -19.54021,4.19e-4 c -0.0299,1.39e-4 -0.0946,0.01417 -0.2642,0.05115 -0.36447,0.07948 -0.4763,0.101498 -0.72751,0.143642 -0.11648,0.01954 -0.21415,0.03791 -0.21708,0.04083 -0.009,0.0091 -0.0315,0.279287 -0.0247,0.297094 0.005,0.01332 0.0321,0.01791 0.12785,0.02186 0.10717,0.0044 0.12883,0.0088 0.18497,0.03744 0.0717,0.03654 0.12171,0.09988 0.15403,0.19508 0.0177,0.05202 0.0195,0.141126 0.0227,1.100646 0.004,1.093617 0.003,1.123289 -0.0445,1.223292 -0.0459,0.09766 -0.14734,0.166288 -0.28317,0.191546 -0.0397,0.0074 -0.0708,0.01952 -0.076,0.02965 -0.0119,0.02321 -0.05,0.328802 -0.0419,0.336844 0.003,0.0035 0.12425,-0.0019 0.2683,-0.01198 0.27306,-0.01918 0.87688,-0.02445 1.15483,-0.01002 0.0857,0.0044 0.14565,0.0034 0.14565,-0.0025 0,-0.0055 0.0124,-0.08051 0.0275,-0.166653 0.0151,-0.08615 0.0274,-0.169169 0.0274,-0.184475 v -0.02785 l -0.1303,0.0077 c -0.16934,0.0099 -0.22838,-0.0032 -0.29305,-0.06536 -0.0796,-0.07651 -0.0879,-0.121874 -0.0865,-0.473921 0,-0.1632 0.007,-0.41789 0.0141,-0.565978 0.007,-0.14809 0.0227,-0.47415 0.0349,-0.724555 0.013,-0.270539 0.0267,-0.460981 0.0335,-0.469303 0.0208,-0.02508 0.2215,-0.15404 0.32847,-0.211025 0.10791,-0.05749 0.26306,-0.11464 0.36477,-0.134406 0.0321,-0.0062 0.10861,-0.01139 0.17004,-0.01139 0.18354,-1.4e-4 0.31483,0.05468 0.42543,0.177693 0.10411,0.115769 0.15913,0.280351 0.16876,0.504729 0.008,0.1857 -0.0171,1.524675 -0.0306,1.641229 -0.0184,0.158121 -0.0835,0.257538 -0.22337,0.341389 -0.0355,0.0213 -0.0884,0.04667 -0.11753,0.05635 -0.0502,0.01667 -0.0533,0.01997 -0.0592,0.06356 -0.008,0.05785 -0.0279,0.26811 -0.0279,0.29024 l -7e-5,-7.4e-5 c 0,0.01269 0.008,0.01495 0.0357,0.0099 0.098,-0.01812 0.43624,-0.05229 0.59398,-0.06002 0.098,-0.0047 0.34627,-0.005 0.55176,-5.59e-4 0.20551,0.0045 0.37484,0.0069 0.37623,0.0055 0.005,-0.0049 0.0658,-0.368633 0.0623,-0.372123 -0.002,-0.0019 -0.0519,6.98e-4 -0.1111,0.0058 -0.22156,0.01905 -0.31154,-0.01474 -0.37465,-0.14061 -0.0415,-0.08275 -0.05,-0.166062 -0.0429,-0.421113 0.007,-0.234606 0.0412,-0.738387 0.0841,-1.221344 0.0455,-0.511902 0.0417,-0.66431 -0.0216,-0.861125 -0.0447,-0.139279 -0.0994,-0.227727 -0.20871,-0.337278 -0.11135,-0.111656 -0.21473,-0.176472 -0.36159,-0.226752 -0.18935,-0.06484 -0.46788,-0.08984 -0.5916,-0.0531 -0.1501,0.04457 -0.56578,0.292101 -0.8519,0.507253 -0.0589,0.04431 -0.11706,0.08058 -0.12934,0.08058 -0.055,0 -0.0531,-0.111196 0.007,-0.422336 0.0289,-0.149602 0.0289,-0.1513 0.008,-0.172428 -0.008,-0.0079 -0.0133,-0.01279 -0.0312,-0.01269 z m 4.87997,0.0029 v 7.2e-5 c -0.14822,3.8e-5 -0.25426,0.026 -0.4947,0.121203 -0.23959,0.09487 -0.87383,0.411891 -0.87383,0.436767 0,0.0276 0.10638,0.352781 0.12041,0.368013 0.0169,0.01841 0.0197,0.01797 0.0558,-0.0091 0.19994,-0.149686 0.47338,-0.281153 0.68645,-0.330063 0.11588,-0.02664 0.31338,-0.02709 0.4121,-9.77e-4 0.2425,0.06413 0.40442,0.233809 0.47386,0.496574 0.0294,0.111314 0.0427,0.509244 0.0185,0.553931 -0.013,0.02412 -0.0812,0.04358 -0.77652,0.221487 -0.86042,0.220132 -0.88022,0.226995 -0.9829,0.340451 -0.11992,0.132525 -0.16565,0.268751 -0.16565,0.488639 0,0.28986 0.0906,0.51401 0.28585,0.712072 0.1771,0.17965 0.39257,0.275128 0.65537,0.290457 0.0997,0.0058 0.11307,0.0041 0.18613,-0.0246 0.14459,-0.05672 0.38853,-0.238171 0.62809,-0.467214 0.083,-0.07933 0.10961,-0.09855 0.13615,-0.09855 0.0182,0 0.0378,0.0062 0.0436,0.01371 0.006,0.0076 0.0189,0.05576 0.0289,0.107137 0.0543,0.277798 0.23061,0.445148 0.51556,0.489359 0.15213,0.0236 0.18021,0.02103 0.27234,-0.02525 0.0454,-0.02282 0.11239,-0.06442 0.14876,-0.09241 0.16435,-0.126461 0.45742,-0.489682 0.43937,-0.544554 -0.003,-0.01067 -0.0233,-0.03917 -0.044,-0.06334 -0.0326,-0.03816 -0.0402,-0.04225 -0.0576,-0.03052 -0.3249,0.219191 -0.62665,0.188805 -0.70695,-0.07121 -0.0378,-0.12247 -0.0309,-0.249173 0.0627,-1.145593 0.0432,-0.413919 0.0514,-0.524602 0.0514,-0.719936 0,-0.221601 -0.001,-0.234731 -0.0301,-0.329703 -0.13697,-0.444839 -0.52096,-0.68695 -1.08924,-0.686822 z m -11.89897,0.0027 c -0.004,-4.19e-4 -0.008,4.9e-5 -0.0124,0.0011 -0.0845,0.02063 -0.89231,0.175217 -1.04597,0.200132 -0.10275,0.01667 -0.18872,0.03169 -0.19081,0.0334 -0.002,0.0017 -0.01,0.07054 -0.0171,0.152947 l -0.0131,0.149846 0.0666,-0.0082 c 0.0823,-0.01009 0.16218,-0.0077 0.21464,0.0064 0.0477,0.01284 0.12603,0.07723 0.14977,0.123151 0.055,0.106467 0.0529,0.06039 0.0568,1.190179 0.004,1.118861 0.003,1.134212 -0.048,1.242915 -0.0487,0.10325 -0.16914,0.195945 -0.32127,0.247314 -0.0749,0.02529 -0.0674,0.0079 -0.0897,0.207778 -0.006,0.05742 -0.0138,0.118001 -0.0166,0.134623 -0.006,0.03721 -0.009,0.03703 0.18564,0.0084 0.34944,-0.05135 0.43105,-0.05719 0.79243,-0.05663 0.1934,2.79e-4 0.41416,0.0038 0.49059,0.0079 l 0.13895,0.0074 0.007,-0.0316 c 0.0126,-0.06073 0.0507,-0.311602 0.0507,-0.333961 0,-0.02196 -0.004,-0.0224 -0.14011,-0.01537 -0.0941,0.0049 -0.15548,0.003 -0.18692,-0.0056 -0.056,-0.01529 -0.11718,-0.06628 -0.14509,-0.120988 -0.0449,-0.08801 -0.048,-0.147317 -0.041,-0.801244 0.0105,-0.978163 0.0592,-1.772694 0.12908,-2.100866 0.036,-0.168964 0.0361,-0.16979 0.0163,-0.208067 -0.0109,-0.02095 -0.0188,-0.02983 -0.0299,-0.03102 z m 22.92598,0.0013 c -0.14019,9.77e-4 -0.28092,0.01002 -0.35603,0.02648 -0.34501,0.07561 -0.64477,0.23644 -0.88522,0.475076 -0.16503,0.163774 -0.2554,0.289709 -0.36224,0.504728 -0.14398,0.289652 -0.20851,0.592145 -0.20851,0.97129 0,0.37516 0.0601,0.640085 0.21009,0.931466 0.0814,0.158091 0.17546,0.284345 0.30454,0.408701 0.22657,0.21828 0.51986,0.354692 0.84359,0.392255 0.12308,0.01428 0.32016,0.0123 0.44564,-0.0044 0.38842,-0.05171 0.71506,-0.205255 0.9873,-0.464108 0.30581,-0.290781 0.49473,-0.653763 0.57247,-1.099852 0.0293,-0.168388 0.0395,-0.470307 0.0218,-0.645482 -0.0802,-0.792132 -0.52369,-1.327969 -1.22063,-1.474936 -0.0729,-0.01537 -0.21257,-0.02224 -0.35279,-0.02121 z m -0.21794,0.472045 c 0.18756,-0.004 0.37877,0.05415 0.51648,0.162976 0.26239,0.207372 0.41501,0.532409 0.48432,1.03153 0.0226,0.163443 0.0192,0.615368 -0.006,0.752762 -0.0797,0.437787 -0.26615,0.708752 -0.56381,0.819282 -0.0876,0.03253 -0.11002,0.03619 -0.23951,0.03939 -0.0942,0.0023 -0.16531,-0.0016 -0.2088,-0.01161 -0.43918,-0.100893 -0.71541,-0.515603 -0.79828,-1.198692 -0.0205,-0.169639 -0.018,-0.54734 0.005,-0.692665 0.0752,-0.482235 0.29615,-0.791795 0.62657,-0.877861 0.0596,-0.01552 0.12174,-0.02378 0.18426,-0.02511 z m -10.46068,1.507473 h 7e-5 c 0.007,4.19e-4 0.0169,0.004 0.0243,0.0094 0.0166,0.01216 0.0167,0.04261 0.002,0.397663 l -0.0163,0.384462 -0.0514,0.04697 c -0.1172,0.107076 -0.32884,0.224896 -0.4771,0.265638 -0.30602,0.08409 -0.5969,-0.09928 -0.64917,-0.409207 -0.0146,-0.08631 -0.008,-0.185697 0.0158,-0.242841 0.0215,-0.05147 0.0902,-0.124908 0.14103,-0.150855 0.0233,-0.01188 0.25601,-0.08333 0.51722,-0.158792 0.26121,-0.07546 0.48065,-0.139221 0.48763,-0.141692 0.002,-5.58e-4 0.004,-8.37e-4 0.006,-6.98e-4 z"
         id="path1446"
         inkscape:connector-curvature="0" />
      <path
         style="fill:#d77f0c;fill-opacity:1;stroke-width:0.01098994"
         d="m -192.69953,47.669388 c -0.007,6.3e-5 -0.12879,0.02249 -0.27083,0.04985 -0.47414,0.09134 -0.61739,0.116762 -0.82844,0.147033 l -0.20958,0.03008 -0.008,0.03759 c -0.004,0.02066 -0.0114,0.09276 -0.0156,0.160233 l -0.008,0.122647 0.13137,-0.0061 c 0.0904,-0.0042 0.14435,-0.0018 0.17286,0.0077 0.0865,0.02854 0.15141,0.114079 0.18368,0.242118 0.0227,0.08747 0.0234,4.22962 10e-4,4.346527 -0.0355,0.188514 -0.105,0.262854 -0.29868,0.319459 l -0.0825,0.0241 -0.0127,0.0865 c -0.007,0.04756 -0.0163,0.124792 -0.0206,0.171635 -0.008,0.08454 -0.008,0.08524 0.0183,0.08513 0.0144,-4.1e-5 0.12506,-0.0078 0.24595,-0.01717 0.2574,-0.01995 0.83682,-0.02259 1.09776,-0.005 0.096,0.0065 0.17599,0.01039 0.17754,0.0087 0.004,-0.0043 0.0709,-0.354194 0.0709,-0.371258 0,-0.01103 -0.0277,-0.01241 -0.12915,-0.0065 -0.15573,0.0091 -0.22463,-0.0031 -0.28144,-0.04993 -0.0481,-0.03966 -0.0766,-0.09219 -0.0935,-0.172065 -0.0157,-0.07388 -0.0166,-1.221366 -10e-4,-1.892508 0.0377,-1.673547 0.11162,-2.889939 0.1927,-3.172728 0.0148,-0.05147 0.0147,-0.0616 -0.001,-0.101725 -0.01,-0.02449 -0.0235,-0.04448 -0.0304,-0.04437 z m -6.39647,0.323068 c -0.14477,-0.0023 -0.29693,0.05425 -0.39029,0.15641 -0.0951,0.104009 -0.13225,0.206024 -0.13225,0.360656 0,0.221456 0.0972,0.371606 0.27776,0.430197 0.0744,0.02415 0.28299,0.01452 0.36303,-0.01674 0.0922,-0.036 0.19454,-0.134954 0.24373,-0.235696 0.11938,-0.244448 0.0363,-0.554573 -0.17525,-0.653997 -0.0566,-0.0266 -0.12091,-0.03979 -0.18673,-0.04083 z m -6.01616,0.38742 c -0.15097,-8.3e-5 -0.29596,0.0063 -0.38037,0.01926 -0.80269,0.123041 -1.37063,0.567882 -1.5138,1.185705 -0.0343,0.146419 -0.0341,0.412703 0,0.549383 0.0586,0.234835 0.1707,0.40166 0.39072,0.581345 0.23674,0.193329 0.41431,0.301096 1.04027,0.631704 0.68898,0.363891 0.88242,0.518722 0.95866,0.767336 0.0301,0.098 0.0322,0.263978 0.005,0.368157 -0.1091,0.415196 -0.55305,0.636647 -1.16963,0.583366 -0.24145,-0.02087 -0.40647,-0.07294 -0.518,-0.163482 -0.0661,-0.05361 -0.14517,-0.178855 -0.18043,-0.285551 -0.0514,-0.155503 -0.0846,-0.408815 -0.0846,-0.645841 0,-0.07456 -0.004,-0.137653 -0.008,-0.14018 -0.004,-0.0025 -0.10346,0.003 -0.21981,0.01219 l -0.21154,0.01674 v 0.04488 c -0.001,0.232486 -0.0398,0.7397 -0.0833,1.081959 -0.0323,0.254669 -0.0309,0.260837 0.078,0.313758 0.21964,0.10679 0.65099,0.212366 0.96969,0.237359 v -7e-5 c 0.16676,0.01308 0.52282,0.0045 0.67796,-0.0163 0.81447,-0.109344 1.39451,-0.538845 1.55436,-1.150936 0.0671,-0.256885 0.0548,-0.55138 -0.0312,-0.750522 -0.0609,-0.140808 -0.23837,-0.356628 -0.40085,-0.487341 -0.16883,-0.135816 -0.36006,-0.248418 -0.85326,-0.502635 -0.40647,-0.209508 -0.54555,-0.287524 -0.72478,-0.406465 -0.2308,-0.153177 -0.32929,-0.258577 -0.39203,-0.419453 -0.0254,-0.06517 -0.0299,-0.09099 -0.0299,-0.206334 -0.001,-0.160065 0.0219,-0.238678 0.1028,-0.353943 0.18141,-0.258321 0.5467,-0.385492 0.99056,-0.344926 0.40749,0.03724 0.58475,0.153013 0.66633,0.435107 0.0157,0.05417 0.0191,0.115812 0.0205,0.345572 0.001,0.24191 0.004,0.281208 0.0187,0.290675 0.0161,0.01015 0.34592,-0.0082 0.39427,-0.02193 0.0138,-0.0039 0.0197,-0.02493 0.0252,-0.08989 0.0313,-0.36369 0.0666,-0.631024 0.13354,-1.0114 0.0357,-0.203267 0.0378,-0.225378 0.0227,-0.24847 -0.0323,-0.04922 -0.48209,-0.156984 -0.83133,-0.199119 -0.10818,-0.01303 -0.26515,-0.01961 -0.41613,-0.0197 h -7e-5 z m 3.31723,0.881107 c -0.004,-4.19e-4 -0.008,-1.4e-4 -0.0106,5.58e-4 -0.004,9.77e-4 -0.008,0.003 -0.011,0.0058 -0.32333,0.271847 -0.75708,0.570723 -1.02143,0.703847 -0.0845,0.04255 -0.0806,0.03472 -0.10108,0.201574 -0.01,0.08033 -0.0105,0.118744 -0.002,0.131883 0.008,0.01317 0.0413,0.02273 0.11392,0.03304 0.24018,0.03414 0.3223,0.105718 0.35127,0.306038 0.007,0.04506 0.0112,0.4838 0.0112,1.097113 0,1.092181 0.003,1.146136 0.0556,1.304313 0.0984,0.293312 0.32662,0.45084 0.71237,0.491742 h 7e-5 c 0.21521,0.02282 0.30357,0.0095 0.43007,-0.06486 0.14432,-0.08483 0.46276,-0.316965 0.569,-0.414764 l 0.0452,-0.04155 -0.0339,-0.08795 c -0.0187,-0.04836 -0.0357,-0.08993 -0.0378,-0.09242 -0.002,-0.0025 -0.0372,0.0085 -0.0781,0.02438 -0.17388,0.06776 -0.30227,0.09537 -0.44239,0.09523 -0.22874,-2.79e-4 -0.4048,-0.09475 -0.47911,-0.257054 -0.061,-0.133221 -0.0727,-0.210495 -0.0786,-0.513243 -0.008,-0.434604 0.034,-1.730108 0.0587,-1.794249 0.008,-0.0217 0.0748,-0.02242 0.64101,-0.0067 0.21409,0.006 0.3911,0.009 0.39334,0.0067 0.007,-0.0065 0.069,-0.382565 0.069,-0.416205 0,-0.03654 0.048,-0.03504 -0.59195,-0.01832 -0.39077,0.01022 -0.45705,0.0097 -0.4706,-0.0038 -0.0135,-0.0136 -0.0133,-0.03874 0.002,-0.18873 0.01,-0.09519 0.0265,-0.232197 0.0369,-0.304453 0.013,-0.09031 0.0153,-0.134303 0.007,-0.140682 -0.006,-0.0051 -0.0412,-0.02176 -0.0774,-0.03701 -0.0304,-0.01277 -0.0484,-0.01915 -0.0607,-0.02027 z m 6.20839,0.564104 c -0.0421,-2.79e-4 -0.0852,2.79e-4 -0.12981,0.0014 -0.16773,0.0043 -0.25234,0.01148 -0.32754,0.02785 -0.95873,0.208742 -1.55782,1.109442 -1.45292,2.184266 0.0447,0.457588 0.20352,0.806379 0.49526,1.087372 0.25239,0.24306 0.57065,0.378994 0.96566,0.412382 v -7.4e-5 c 0.13338,0.01128 0.28271,0.0044 0.37306,-0.01717 0.10351,-0.02475 0.2877,-0.105585 0.44227,-0.194071 0.16676,-0.09546 0.47045,-0.302026 0.47045,-0.319964 0,-0.0332 -0.092,-0.28475 -0.10613,-0.290169 -0.009,-0.0033 -0.0645,0.01687 -0.12408,0.04488 -0.12797,0.06019 -0.36392,0.140335 -0.49512,0.168241 -0.1301,0.02771 -0.39265,0.02717 -0.50005,-0.0011 -0.42095,-0.110608 -0.68444,-0.49588 -0.75241,-1.099995 -0.0179,-0.158501 -0.0156,-0.494181 0.004,-0.63199 0.0428,-0.298066 0.13422,-0.509764 0.2867,-0.663955 0.1345,-0.135993 0.29038,-0.205465 0.51259,-0.2287 0.10067,-0.01053 0.13072,-0.0096 0.2139,0.0067 0.12962,0.02546 0.22836,0.07821 0.30837,0.164633 0.12029,0.129927 0.16809,0.280776 0.16809,0.538347 v 0.141115 l 0.15664,-0.0079 c 0.0861,-0.0044 0.16693,-0.01184 0.17964,-0.01659 0.0206,-0.0077 0.0239,-0.02054 0.0306,-0.124886 0.0155,-0.239201 0.0688,-0.590743 0.13347,-0.879518 0.0242,-0.107454 0.0253,-0.122891 0.0109,-0.144795 -0.009,-0.01349 -0.0248,-0.02712 -0.0356,-0.0303 -0.29268,-0.08677 -0.53285,-0.124119 -0.8278,-0.125962 z m -3.08833,6.98e-4 c -0.004,-4.19e-4 -0.008,7.3e-5 -0.0128,0.0013 -0.0874,0.02099 -0.86393,0.16986 -1.03529,0.198472 l -0.2088,0.03484 -0.007,0.08203 c -0.004,0.04513 -0.0103,0.115025 -0.0143,0.155257 l -0.007,0.07315 0.0418,-0.01002 c 0.0605,-0.01449 0.19277,-0.01328 0.24457,0.0022 0.1018,0.0305 0.17602,0.139591 0.19789,0.29096 0.007,0.04628 0.0109,0.4675 0.0109,1.07612 6e-5,1.089215 -2e-5,1.091291 -0.0618,1.204821 -0.0167,0.03063 -0.0547,0.0776 -0.0845,0.104395 -0.0557,0.05011 -0.18236,0.11704 -0.24682,0.130441 -0.0224,0.0047 -0.0401,0.0167 -0.0461,0.03131 -0.007,0.01799 -0.044,0.30405 -0.044,0.337425 4e-5,0.0033 0.0755,-0.0052 0.16773,-0.0189 0.36344,-0.05394 0.46054,-0.06108 0.81597,-0.06024 0.18739,4.18e-4 0.40627,0.0042 0.48634,0.0082 0.0827,0.0042 0.14561,0.0032 0.14572,-0.0023 6e-5,-0.0053 0.0124,-0.08806 0.0275,-0.183754 0.0151,-0.09571 0.0273,-0.178123 0.0273,-0.183177 0,-0.0051 -0.0754,-0.0083 -0.1676,-0.0074 -0.16449,0.0018 -0.16856,0.0013 -0.21888,-0.02828 -0.13809,-0.08117 -0.15044,-0.179494 -0.13109,-1.04098 0.024,-1.067661 0.0703,-1.715781 0.14444,-2.022591 0.0211,-0.08761 0.0214,-0.09608 0.005,-0.135632 -0.0109,-0.02604 -0.0177,-0.03623 -0.0289,-0.03766 z m 8.30974,0.03903 -0.0576,0.0066 c -0.28661,0.03252 -0.58448,0.04264 -1.06899,0.03636 l -0.50565,-0.0066 -0.031,0.137868 c -0.017,0.07581 -0.0281,0.140807 -0.0245,0.144437 0.004,0.0036 0.0597,0.01013 0.12459,0.0145 0.17887,0.01205 0.26749,0.05236 0.29918,0.135996 0.0138,0.03642 0.006,0.103895 -0.0181,0.154318 -0.009,0.01813 -0.23813,0.253063 -0.50992,0.52204 l -0.49413,0.489076 -0.007,0.06716 -0.007,0.06724 0.47559,0.707601 c 0.2616,0.38916 0.50561,0.747118 0.54217,0.79547 0.18017,0.238212 0.34564,0.358479 0.56063,0.407404 v 0 c 0.11233,0.02556 0.24737,0.01376 0.5009,-0.04372 0.12354,-0.02801 0.22617,-0.05252 0.22812,-0.05447 0.002,-0.002 0.012,-0.05971 0.0223,-0.128346 0.0131,-0.08768 0.021,-0.116818 0.0263,-0.0979 0.006,0.02102 0.007,0.01656 0.009,-0.02042 0,-0.02902 -0.003,-0.04471 -0.01,-0.04055 -0.006,0.0037 -0.011,0.002 -0.011,-0.0038 0,-0.0058 -0.026,-0.01405 -0.0577,-0.01818 -0.0903,-0.01177 -0.24754,-0.06804 -0.33793,-0.120988 -0.13616,-0.07976 -0.25945,-0.19445 -0.41246,-0.383523 -0.11263,-0.139183 -0.84041,-1.157583 -0.84041,-1.176972 -0.001,-0.02616 0.43478,-0.458648 0.68898,-0.684084 0.34045,-0.301914 0.52873,-0.432566 0.77225,-0.535893 l 0.082,-0.03477 0.0301,-0.136428 c 0.0165,-0.07502 0.0307,-0.150564 0.0307,-0.16788 z"
         id="path1448"
         inkscape:connector-curvature="0" />
    </g>
    <text
       xml:space="preserve"
       style="font-style:normal;font-weight:normal;font-size:14.52612972px;line-height:1.25;font-family:sans-serif;letter-spacing:0px;word-spacing:0px;fill:#000000;fill-opacity:1;stroke:none;stroke-width:0.36315331"
       x="91.151024"
       y="157.32008"
       id="text1454"><tspan
         sodipodi:role="line"
         x="91.151024"
         y="157.32008"
         style="font-style:normal;font-variant:normal;font-weight:600;font-stretch:normal;font-size:9.68408775px;line-height:0.80000001;font-family:'Josefin Sans';-inkscape-font-specification:'Josefin Sans Semi-Bold';text-align:end;text-anchor:end;fill:#000000;stroke-width:0.36315331"
         id="tspan1452">Powered By :</tspan></text>
  </g>
</svg>
