<?xml version="1.0" encoding="UTF-8" standalone="no"?>
<!-- Created with Inkscape (http://www.inkscape.org/) -->

<svg
   xmlns:dc="http://purl.org/dc/elements/1.1/"
   xmlns:cc="http://creativecommons.org/ns#"
   xmlns:rdf="http://www.w3.org/1999/02/22-rdf-syntax-ns#"
   xmlns:svg="http://www.w3.org/2000/svg"
   xmlns="http://www.w3.org/2000/svg"
   xmlns:sodipodi="http://sodipodi.sourceforge.net/DTD/sodipodi-0.dtd"
   xmlns:inkscape="http://www.inkscape.org/namespaces/inkscape"
   width="210mm"
   height="297mm"
   viewBox="0 0 210 297"
   version="1.1"
   id="svg8"
   inkscape:version="0.92.4 (5da689c313, 2019-01-14)"
   sodipodi:docname="tech sympo.svg">
  <defs
     id="defs2">
    <pattern
       y="0"
       x="0"
       height="6"
       width="6"
       patternUnits="userSpaceOnUse"
       id="EMFhbasepattern" />
  </defs>
  <sodipodi:namedview
     id="base"
     pagecolor="#ffffff"
     bordercolor="#666666"
     borderopacity="1.0"
     inkscape:pageopacity="0.0"
     inkscape:pageshadow="2"
     inkscape:zoom="0.35"
     inkscape:cx="521.00864"
     inkscape:cy="515.71745"
     inkscape:document-units="mm"
     inkscape:current-layer="layer1"
     showgrid="false"
     inkscape:window-width="1366"
     inkscape:window-height="706"
     inkscape:window-x="-8"
     inkscape:window-y="-8"
     inkscape:window-maximized="1" />
  <metadata
     id="metadata5">
    <rdf:RDF>
      <cc:Work
         rdf:about="">
        <dc:format>image/svg+xml</dc:format>
        <dc:type
           rdf:resource="http://purl.org/dc/dcmitype/StillImage" />
        <dc:title></dc:title>
      </cc:Work>
    </rdf:RDF>
  </metadata>
  <g
     inkscape:label="Layer 1"
     inkscape:groupmode="layer"
     id="layer1">
    <path
       style="fill:#020030;fill-opacity:1;stroke-width:0.56976193"
       d="m 140.53664,213.88657 c -0.85388,-0.47889 -1.81536,-1.3618 -2.13661,-1.96207 -0.38068,-0.71131 -0.58408,-13.22906 -0.58408,-35.94528 0,-27.67053 -0.14678,-34.78926 -0.71221,-34.54025 -8.56461,3.77166 -12.53207,4.52995 -22.34976,4.27171 l -7.23168,-0.19015 -1.66115,-1.86071 c -0.91364,-1.02338 -1.66116,-2.18379 -1.66116,-2.57863 0,-0.41989 -3.48874,-1.86643 -8.403987,-3.48455 -16.298087,-5.36538 -17.80506,-5.99614 -17.80506,-7.45261 0,-0.72026 0.370106,-1.45157 0.822457,-1.62516 0.452351,-0.17357 6.57818,1.65783 13.612952,4.06983 l 12.790488,4.3854 1.26145,-1.13952 c 1.13486,-1.02517 2.11033,-1.14553 9.72102,-1.19923 6.55006,-0.0463 8.75935,-0.25611 9.7876,-0.92986 0.73041,-0.47858 3.54786,-4.05702 6.26101,-7.95209 3.3675,-4.83449 5.56404,-7.42181 6.92146,-8.15283 3.33866,-1.79798 4.25244,-0.93134 8.10992,7.69157 l 3.35629,7.50253 0.15899,-7.45379 0.15897,-7.4538 h 1.69275 1.69274 l 0.0157,7.54935 0.0157,7.54933 3.16848,-7.12201 c 3.48737,-7.8388 4.35499,-9.1162 6.19188,-9.1162 3.31487,0 10.50183,6.83349 13.38391,12.72564 2.44805,5.0048 2.86368,8.13079 2.86368,21.53786 0,11.12754 -0.0729,11.96004 -1.13953,13.02675 -1.5348,1.53481 -4.61991,1.50511 -6.03663,-0.0582 -0.96117,-1.06055 -1.11799,-2.41367 -1.37027,-11.82257 -0.27216,-10.15012 -0.3358,-10.62494 -1.42441,-10.62494 -1.12401,0 -1.1434,0.47482 -1.4244,34.8853 l -0.28488,34.8853 -1.5798,1.57947 c -1.30128,1.30101 -2.07745,1.57947 -4.4027,1.57947 -2.27513,0 -3.1083,-0.2854 -4.29364,-1.47072 -1.71294,-1.71294 -1.8605,-2.62161 -3.69374,-22.74417 -0.6709,-7.36416 -1.40237,-13.86815 -1.62552,-14.45329 -0.22315,-0.58513 -1.1201,6.59386 -1.99324,15.95334 -1.66909,17.89144 -2.03373,19.99727 -3.72822,21.53076 -1.49455,1.35256 -4.5962,1.64565 -6.44471,0.60898 z M 44.94475,199.1218 c 0,-1.84983 2.456108,-4.66861 4.719184,-5.41601 1.634146,-0.53969 2.868758,-2.39781 11.376591,-17.12205 5.248932,-9.08416 9.543512,-16.64883 9.543512,-16.81039 0,-0.16151 -9.999321,-0.2937 -22.220716,-0.2937 H 26.142607 v -28.77298 -28.77299 h 48.144883 48.14488 v 13.67429 13.67428 h -1.70929 -1.70928 v -11.965 -11.965 H 74.281564 29.549323 l 0.148373,25.21197 0.148372,25.21197 h 44.441433 44.441429 l 0.18028,-1.56685 c 0.15101,-1.31224 0.45189,-1.56685 1.85173,-1.56685 1.66268,0 1.67144,0.0173 1.67144,3.41196 v 3.41198 l -22.22597,0.14901 -22.225979,0.14902 9.449741,16.37557 c 9.100535,15.77043 9.546424,16.42379 12.066015,17.68028 2.643973,1.31854 5.205143,4.84024 4.431023,6.0928 -0.43104,0.69746 -17.744964,0.82778 -18.172017,0.13674 -0.582268,-0.94213 1.787189,-4.98364 3.398066,-5.79598 0.911539,-0.45968 1.75257,-0.89675 1.868966,-0.97129 0.116394,-0.0745 -3.566754,-6.69834 -8.184778,-14.71954 -4.618024,-8.0212 -8.4675,-14.50672 -8.554399,-14.41226 -0.537548,0.58428 -16.851571,29.07376 -16.702457,29.1678 0.101104,0.0638 0.875335,0.41256 1.720526,0.77511 1.722586,0.73892 3.039214,2.5027 3.61433,4.84186 l 0.385234,1.56685 h -9.177959 -9.177959 z m 3.161079,-59.35295 c -0.566765,-0.56677 -0.844582,-1.45208 -0.6678,-2.12808 0.429058,-1.64073 -10.064128,-18.37511 -12.221559,-19.49076 -2.762719,-1.42866 -2.817017,-4.51073 -0.09153,-5.19479 1.941436,-0.48727 3.227672,0.41645 3.451954,2.42534 0.221682,1.98568 10.651973,18.84283 12.157449,19.64855 0.852393,0.45619 2.392722,-0.23057 7.890491,-3.51796 3.757239,-2.24665 6.831339,-4.4305 6.831339,-4.85301 0,-1.17619 2.622783,-2.65227 3.959109,-2.22815 1.368373,0.43431 2.154502,2.92469 1.33472,4.22825 -0.314374,0.49988 -1.569997,1.05737 -2.790269,1.23882 -2.801906,0.41663 -14.365812,7.3623 -15.259962,9.16563 -0.820872,1.65557 -3.268332,2.03177 -4.59395,0.70616 z M 148.43475,113.06409 c -8.41035,-2.99821 -10.39878,-14.408903 -3.5016,-20.094142 8.845,-7.290792 21.73859,0.779685 19.06314,11.932182 -1.60165,6.67645 -8.9367,10.52365 -15.56154,8.16196 z"
       id="path834"
       inkscape:connector-curvature="0" />
  </g>
</svg>
