<?xml version="1.0" encoding="UTF-8" standalone="no"?>
<!-- Created with Inkscape (http://www.inkscape.org/) -->

<svg
   xmlns:dc="http://purl.org/dc/elements/1.1/"
   xmlns:cc="http://creativecommons.org/ns#"
   xmlns:rdf="http://www.w3.org/1999/02/22-rdf-syntax-ns#"
   xmlns:svg="http://www.w3.org/2000/svg"
   xmlns="http://www.w3.org/2000/svg"
   xmlns:sodipodi="http://sodipodi.sourceforge.net/DTD/sodipodi-0.dtd"
   xmlns:inkscape="http://www.inkscape.org/namespaces/inkscape"
   width="210mm"
   height="297mm"
   viewBox="0 0 210 297"
   version="1.1"
   id="svg8"
   inkscape:version="0.92.4 (5da689c313, 2019-01-14)"
   sodipodi:docname="tendering.svg">
  <defs
     id="defs2">
    <pattern
       y="0"
       x="0"
       height="6"
       width="6"
       patternUnits="userSpaceOnUse"
       id="EMFhbasepattern" />
  </defs>
  <sodipodi:namedview
     id="base"
     pagecolor="#ffffff"
     bordercolor="#666666"
     borderopacity="1.0"
     inkscape:pageopacity="0.0"
     inkscape:pageshadow="2"
     inkscape:zoom="0.24748737"
     inkscape:cx="116.24087"
     inkscape:cy="593.02383"
     inkscape:document-units="mm"
     inkscape:current-layer="layer1"
     showgrid="false"
     inkscape:window-width="1366"
     inkscape:window-height="706"
     inkscape:window-x="-8"
     inkscape:window-y="-8"
     inkscape:window-maximized="1" />
  <metadata
     id="metadata5">
    <rdf:RDF>
      <cc:Work
         rdf:about="">
        <dc:format>image/svg+xml</dc:format>
        <dc:type
           rdf:resource="http://purl.org/dc/dcmitype/StillImage" />
        <dc:title></dc:title>
      </cc:Work>
    </rdf:RDF>
  </metadata>
  <g
     inkscape:label="Layer 1"
     inkscape:groupmode="layer"
     id="layer1">
    <path
       style="fill:#020030;fill-opacity:1;stroke-width:0.80103362"
       d="m 141.6394,235.03503 c -18.19477,-3.57325 -31.29435,-22.30461 -28.28771,-40.44915 2.60393,-15.71426 14.42695,-27.53726 30.1412,-30.1412 23.16271,-3.83819 44.51746,17.51656 40.67927,40.67927 -3.38213,20.4105 -22.48908,33.84742 -42.53276,29.91108 z m 19.16866,-8.9865 c 5.62471,-2.68595 11.40738,-8.44461 14.20644,-14.14749 1.90507,-3.88143 2.17741,-5.38811 2.17741,-12.04613 0,-6.65801 -0.27234,-8.1647 -2.17741,-12.04613 -2.77949,-5.66301 -8.54343,-11.42695 -14.20644,-14.20644 -3.88144,-1.90507 -5.38812,-2.17741 -12.04613,-2.17741 -6.65801,0 -8.1647,0.27234 -12.04613,2.17741 -19.856,9.74563 -22.56644,35.95539 -5.10453,49.36048 8.03895,6.17133 20.07193,7.44305 29.19679,3.08571 z m -13.79771,-4.71982 c -0.205,-2.08858 -0.69691,-2.67188 -2.68419,-3.18294 -3.37335,-0.8675 -6.74487,-4.64514 -7.32247,-8.20448 l -0.48363,-2.98025 3.48565,0.25185 c 2.95732,0.21367 3.55625,0.55356 3.95137,2.24238 0.66191,2.82919 4.07198,4.58288 6.95317,3.57579 1.76636,-0.61742 2.31281,-1.36355 2.51228,-3.43028 0.32856,-3.40439 -0.86216,-4.7612 -6.26267,-7.13623 -2.42312,-1.06564 -5.39248,-2.87282 -6.59855,-4.01595 -5.55724,-5.26724 -2.59066,-14.68374 5.2456,-16.65052 1.77257,-0.44489 2.15398,-0.99129 2.15398,-3.08574 0,-2.01112 0.33615,-2.54514 1.60207,-2.54514 1.26127,0 1.60207,0.53402 1.60207,2.51046 0,2.17413 0.41831,2.67478 3.12241,3.73698 3.44812,1.35446 5.39943,3.77687 6.17795,7.66948 l 0.5123,2.56149 h -3.53913 c -3.30162,0 -3.59057,-0.1747 -4.30555,-2.60336 -0.63089,-2.14295 -1.21811,-2.6471 -3.32048,-2.8507 -2.01797,-0.19541 -2.84044,0.18977 -3.91854,1.83515 -2.09693,3.20032 -0.59087,5.38656 6.17447,8.96297 7.04146,3.72239 8.98331,6.10973 8.91008,10.95414 -0.0706,4.67097 -1.93379,7.34428 -6.27384,9.00176 -3.04699,1.16365 -3.53967,1.67115 -3.53967,3.64608 0,1.8973 -0.33772,2.29427 -1.95183,2.29427 -1.60841,0 -1.996,-0.44994 -2.20285,-2.55721 z M 39.878299,220.07977 c -1.510673,-0.77031 -3.49323,-2.41828 -4.405688,-3.66215 -1.647363,-2.24571 -1.659015,-2.74137 -1.659015,-70.63248 0,-67.891104 0.01165,-68.386758 1.659015,-70.632476 3.847044,-5.244342 1.722449,-5.062711 59.219546,-5.062711 57.496183,0 55.371843,-0.181585 59.219553,5.062001 1.61791,2.204854 1.66449,3.24672 1.88056,42.061726 l 0.22155,39.80087 -3.62594,-0.28839 -3.62595,-0.28839 v -38.60926 c 0,-28.961379 -0.24021,-38.849461 -0.96125,-39.5705 -1.38956,-1.389573 -104.827487,-1.389573 -106.217049,0 -1.491004,1.491005 -1.382081,133.86801 0.111161,135.1073 0.738225,0.61267 11.23452,0.95526 33.682318,1.09938 l 32.60989,0.20935 1.52401,3.40439 1.52401,3.40439 -34.205031,-0.001 c -30.981799,-8e-4 -34.463843,-0.13323 -36.95169,-1.40181 z m 9.21216,-14.27432 c -1.104239,-1.10424 -1.258768,-5.3749 -1.258768,-34.78775 0,-29.41284 0.154529,-33.68351 1.258768,-34.78774 1.114015,-1.11402 6.357985,-1.25877 45.601698,-1.25877 39.243713,0 44.487683,0.14475 45.601703,1.25877 1.00721,1.0072 1.25877,3.2181 1.25877,11.06304 v 9.80426 l -4.07404,1.04414 c -2.24071,0.57428 -6.11572,2.07973 -8.61112,3.34543 -2.49538,1.2657 -5.52834,2.30585 -6.73991,2.31142 -1.73665,0.008 -2.21044,0.39158 -2.23874,1.81247 -0.0197,0.99129 -1.64184,3.59479 -3.60465,5.78557 l -3.56875,3.98323 v -5.78556 -5.78556 h -7.20931 -7.209304 v 7.2093 7.20931 h 6.369114 6.3691 l -1.52069,3.40438 -1.52069,3.4044 -4.84842,0.23848 -4.848414,0.23848 v 7.17109 7.17107 h 3.524004 3.52398 l 0.2867,3.60465 0.28668,3.60466 H 78.133699 c -24.190568,0 -27.947297,-0.16283 -29.04324,-1.25877 z M 69.459595,192.64561 V 185.4363 H 62.25029 55.040996 v 7.20931 7.2093 h 7.209294 7.209305 z m 21.627915,0 V 185.4363 H 83.878205 76.6689 v 7.20931 7.2093 h 7.209305 7.209305 z M 69.459595,171.0177 v -7.2093 H 62.25029 55.040996 v 7.2093 7.20931 h 7.209294 7.209305 z m 21.627915,0 v -7.2093 H 83.878205 76.6689 v 7.2093 7.20931 h 7.209305 7.209305 z M 69.459595,149.38979 V 142.1805 H 62.25029 55.040996 v 7.20929 7.2093 h 7.209294 7.209305 z m 21.627915,0 V 142.1805 H 83.878205 76.6689 v 7.20929 7.2093 h 7.209305 7.209305 z m 21.62791,0 v -7.20929 h -7.20931 -7.209304 v 7.20929 7.2093 h 7.209304 7.20931 z m 21.6279,0 v -7.20929 h -7.20931 -7.20929 v 7.20929 7.2093 h 7.20929 7.20931 z M 47.831691,102.52932 V 84.50607 h 46.860466 46.860473 v 18.02325 18.02326 H 94.692157 47.831691 Z m 86.511629,0 V 91.715375 H 94.692157 55.040996 v 10.813945 10.81396 h 39.651161 39.651163 z m -43.25581,0 v -3.604642 h 3.604647 3.604649 v 3.604642 3.60466 H 94.692157 91.08751 Z m 14.4186,0 v -3.604642 h 3.60465 3.60466 v 3.604642 3.60466 h -3.60466 -3.60465 z m 14.41861,0 v -3.604642 h 3.60465 3.60464 v 3.604642 3.60466 h -3.60464 -3.60465 z"
       id="path897"
       inkscape:connector-curvature="0" />
  </g>
</svg>
