<?xml version="1.0" encoding="UTF-8" standalone="no"?>
<!-- Created with Inkscape (http://www.inkscape.org/) -->

<svg
   xmlns:dc="http://purl.org/dc/elements/1.1/"
   xmlns:cc="http://creativecommons.org/ns#"
   xmlns:rdf="http://www.w3.org/1999/02/22-rdf-syntax-ns#"
   xmlns:svg="http://www.w3.org/2000/svg"
   xmlns="http://www.w3.org/2000/svg"
   xmlns:sodipodi="http://sodipodi.sourceforge.net/DTD/sodipodi-0.dtd"
   xmlns:inkscape="http://www.inkscape.org/namespaces/inkscape"
   width="210mm"
   height="297mm"
   viewBox="0 0 210 297"
   version="1.1"
   id="svg8"
   inkscape:version="0.92.4 (5da689c313, 2019-01-14)"
   sodipodi:docname="treasure hunt.svg">
  <defs
     id="defs2">
    <pattern
       y="0"
       x="0"
       height="6"
       width="6"
       patternUnits="userSpaceOnUse"
       id="EMFhbasepattern" />
  </defs>
  <sodipodi:namedview
     id="base"
     pagecolor="#ffffff"
     bordercolor="#666666"
     borderopacity="1.0"
     inkscape:pageopacity="0.0"
     inkscape:pageshadow="2"
     inkscape:zoom="0.35"
     inkscape:cx="466.16492"
     inkscape:cy="653.20486"
     inkscape:document-units="mm"
     inkscape:current-layer="layer1"
     showgrid="false"
     inkscape:window-width="1366"
     inkscape:window-height="706"
     inkscape:window-x="-8"
     inkscape:window-y="-8"
     inkscape:window-maximized="1" />
  <metadata
     id="metadata5">
    <rdf:RDF>
      <cc:Work
         rdf:about="">
        <dc:format>image/svg+xml</dc:format>
        <dc:type
           rdf:resource="http://purl.org/dc/dcmitype/StillImage" />
        <dc:title></dc:title>
      </cc:Work>
    </rdf:RDF>
  </metadata>
  <g
     inkscape:label="Layer 1"
     inkscape:groupmode="layer"
     id="layer1">
    <path
       style="fill:#020030;fill-opacity:1;stroke-width:0.36602873"
       d="m 152.33524,220.82046 c -4.0649,-0.81373 -8.76407,-3.62098 -10.79482,-6.44875 -1.75607,-2.44528 -2.1992,-4.36442 -2.1992,-9.5244 v -4.51719 H 106.99383 74.646434 l -1.91941,-2.92362 -1.91941,-2.92362 -0.96771,1.368 c -0.53224,0.7524 -1.43399,2.08752 -2.0039,2.96693 l -1.03618,1.59894 -6.82918,-0.1738 c -6.12299,-0.15583 -7.13794,-0.27441 -9.81502,-1.14662 -3.65432,-1.19061 -7.10955,-3.43725 -8.74083,-5.6834 -2.51407,-3.4617 -2.38841,-0.89754 -2.28013,-46.52592 l 0.0977,-41.17532 1.01103,-2.05874 c 1.19545,-2.43427 3.81545,-5.003332 6.47905,-6.353082 4.24662,-2.15192 10.64685,-2.95187 15.96004,-1.9948 3.15065,0.56753 7.80693,2.92242 9.88259,4.998082 2.78023,2.78023 3.23258,4.14963 3.3886,10.25842 l 0.13321,5.21591 h 21.738 21.737996 l 1.98037,2.95797 1.98038,2.95796 1.96082,-2.97859 1.96083,-2.97859 17.38636,0.12517 17.38636,0.12516 2.98584,0.99876 c 3.67764,1.23017 7.12148,3.47962 8.74083,5.70935 2.51789,3.46696 2.39152,0.87953 2.2816,46.71359 l -0.0992,41.35368 -0.96844,1.83014 c -0.53264,1.00658 -1.68563,2.54285 -2.5622,3.41394 -1.92677,1.91472 -6.62471,4.25659 -9.62211,4.79651 -2.47125,0.44515 -8.45459,0.45523 -10.63911,0.0179 z m 11.40214,-5.63698 c 2.41386,-0.74906 5.18372,-2.61121 6.249,-4.20115 l 0.83331,-1.24372 v -35.56679 -35.5668 l -2.4707,1.21976 c -6.24732,3.08423 -15.34448,3.07075 -21.18655,-0.0314 -1.26844,-0.67354 -2.39414,-1.13676 -2.50154,-1.02935 -0.1074,0.1074 -0.19528,15.9032 -0.19528,35.10177 0,28.44058 0.0913,35.12467 0.49309,36.08433 0.61436,1.46753 3.07007,3.71805 4.89768,4.48846 4.01155,1.69102 9.82647,2.00306 13.88099,0.74489 z M 67.361144,190.08131 c 1.74338,-2.6171 3.29262,-4.75513 3.44275,-4.75118 0.15014,0.004 1.67303,2.14199 3.38422,4.75118 l 3.11124,4.744 31.020936,0.007 31.02093,0.007 v -33.32487 -33.32526 l 0.89843,-0.89843 c 1.74417,-1.74417 3.96592,-0.61417 4.39308,2.23436 1.06019,7.06982 15.45025,9.9586 23.0703,4.63133 2.3789,-1.66312 3.21106,-3.19145 3.02159,-5.5494 -0.1488,-1.85176 -0.29495,-2.11845 -2.04059,-3.72357 -1.03931,-0.95565 -2.82396,-2.10831 -3.99015,-2.57713 -2.08045,-0.83636 -2.3367,-0.84962 -18.39812,-0.95168 l -16.28827,-0.1035 -3.11125,4.75956 c -1.71118,2.61776 -3.23408,4.76279 -3.38421,4.76675 -0.15014,0.004 -1.69436,-2.12655 -3.43161,-4.73445 l -3.15863,-4.74163 -31.890166,-0.10825 -31.89016,-0.10825 -2.92823,-1.03407 c -1.61053,-0.56874 -3.44181,-1.35112 -4.06952,-1.73863 -0.62771,-0.38751 -1.24538,-0.70457 -1.37261,-0.70457 -0.12722,0 -0.23132,15.90298 -0.23132,35.33995 0,38.78588 -0.15171,36.19965 2.25645,38.46538 2.69755,2.53799 5.73533,3.37029 12.41922,3.40265 l 4.9759,0.0241 z m 9.55555,-11.87929 c -1.09759,-1.09759 -1.13606,-1.99502 -0.13981,-3.26154 1.45904,-1.85487 4.36577,-0.8991 4.36577,1.43551 0,2.49709 -2.4823,3.56969 -4.22596,1.82603 z m 10.51225,0.0513 c -0.99847,-1.06283 -1.01805,-2.4366 -0.0495,-3.47617 1.55076,-1.66454 4.37809,-0.52722 4.37809,1.76112 0,2.31456 -2.74396,3.40176 -4.32855,1.71505 z m 10.62005,0.10083 c -1.01057,-0.94148 -1.04332,-2.67172 -0.069,-3.64602 1.55163,-1.55163 4.392346,-0.36463 4.392346,1.83536 0,1.19799 -1.38626,2.55698 -2.608276,2.55698 -0.50268,0 -1.27445,-0.33584 -1.71505,-0.74632 z m 10.545816,0.0143 c -1.51833,-1.51832 -0.42969,-4.39234 1.66376,-4.39234 1.12633,0 2.72858,1.50455 2.72858,2.5622 0,1.05765 -1.60225,2.5622 -2.72858,2.5622 -0.51244,0 -1.26113,-0.32942 -1.66376,-0.73206 z m 10.67099,0.0915 c -1.25914,-1.06544 -1.37398,-2.46724 -0.29087,-3.55036 1.25788,-1.25788 2.86475,-1.24503 3.86843,0.0309 0.99625,1.26652 0.95778,2.16395 -0.13981,3.26153 -1.05541,1.05541 -2.37799,1.15462 -3.43775,0.25789 z m 10.35902,-0.25788 c -1.09759,-1.09759 -1.13606,-1.99502 -0.13981,-3.26154 1.49716,-1.90333 4.51412,-0.79944 4.44514,1.62648 -0.0673,2.36728 -2.60816,3.33223 -4.30533,1.63506 z m -62.800786,-4.59445 c -1.76117,-1.02904 -1.56338,-4.07211 0.31146,-4.79209 1.28397,-0.49306 3.23117,0.44228 3.5479,1.70426 0.53897,2.14744 -1.99669,4.17618 -3.85936,3.08783 z m -5.64658,-11.14479 c -1.03162,-1.03162 -1.14822,-2.24234 -0.32863,-3.41246 0.80117,-1.14384 3.18363,-1.14384 3.9848,0 0.87419,1.24807 0.71518,2.67929 -0.39463,3.55227 -1.26652,0.99625 -2.16395,0.95778 -3.26154,-0.13981 z m 25.26717,-9.72193 -1.80808,-1.83568 3.009,-3.009 3.009,-3.009 -3.01108,-3.02681 -3.01108,-3.0268 1.91621,-1.91622 1.91622,-1.91622 3.01374,3.01374 3.01375,3.01374 3.0268,-3.01108 3.026806,-3.01108 1.91356,1.91356 1.91356,1.91356 -3.01158,3.0273 -3.011566,3.0273 3.003626,3.02385 3.00363,3.02385 -1.90562,1.90562 -1.90561,1.90561 -3.029716,-3.01398 -3.02973,-3.01398 -2.91152,2.9287 c -1.60134,1.61078 -3.00393,2.9287 -3.11688,2.9287 -0.11295,0 -1.019,-0.82606 -2.01344,-1.83568 z m -20.14276,-0.8929 c -1.14005,-1.14004 -1.14005,-2.1875 0,-3.32753 1.1577,-1.15771 2.54893,-1.14463 3.72861,0.0351 0.72112,0.72112 0.88033,1.15832 0.69982,1.92165 -0.52267,2.21019 -2.86424,2.93503 -4.42843,1.37083 z m 10.61483,-5.1244 c -2.3069,-2.3069 0.67943,-5.86445 3.23523,-3.85406 1.3602,1.06993 1.37249,2.93496 0.0263,3.99387 -1.26651,0.99624 -2.16394,0.95777 -3.26153,-0.13981 z m -6.02284,-35.16716 c 0,-5.00104 -0.34186,-6.0319 -2.684,-8.09353 -3.36125,-2.9587 -10.24641,-4.187392 -15.50408,-2.76679 -10.93195,2.95377 -10.88957,11.81158 0.0697,14.56015 1.17068,0.29361 4.76476,0.47022 9.97428,0.49013 l 8.14414,0.0311 z"
       id="path921"
       inkscape:connector-curvature="0" />
  </g>
</svg>
